<svg xmlns="http://www.w3.org/2000/svg" width="284" height="251.793" viewBox="0 0 284 251.793">
  <defs>
    <style>
      .cls-1 {
        fill: #ed6d64;
      }

      .cls-2 {
        fill: #f1f1f2;
      }

      .cls-3 {
        fill: #fff;
      }

      .cls-4 {
        fill: #8d7e8a;
      }

      .cls-5 {
        fill: #7a6876;
      }

      .cls-6 {
        fill: #f48575;
      }

      .cls-7 {
        fill: #e0605a;
      }

      .cls-8 {
        fill: #ececed;
      }

      .cls-9 {
        fill: #d9d4d8;
      }

      .cls-10 {
        fill: #594555;
      }
    </style>
  </defs>
  <g id="chennai-central-railway-station" transform="translate(-1.782 -10.182)">
    <rect id="Rectangle_81" data-name="Rectangle 81" class="cls-1" width="67.34" height="67.34" transform="translate(50.244 193.538)"/>
    <rect id="Rectangle_82" data-name="Rectangle 82" class="cls-1" width="67.34" height="67.34" transform="translate(170.285 193.538)"/>
    <rect id="Rectangle_83" data-name="Rectangle 83" class="cls-2" width="67.34" height="14.639" transform="translate(170.285 178.899)"/>
    <rect id="Rectangle_84" data-name="Rectangle 84" class="cls-3" width="67.34" height="5.856" transform="translate(170.285 187.682)"/>
    <path id="Path_186" data-name="Path 186" class="cls-1" d="M111.612,71.59l-8.784-8.783L94.045,71.59H82.334v87.835h40.99V71.59Z" transform="translate(155.291 101.452)"/>
    <path id="Path_187" data-name="Path 187" class="cls-4" d="M94.19,77.518H88.334V68.735a2.929,2.929,0,0,1,2.928-2.928h0a2.929,2.929,0,0,1,2.928,2.928Z" transform="translate(166.858 107.236)"/>
    <path id="Path_188" data-name="Path 188" class="cls-5" d="M91.262,65.807a2.929,2.929,0,0,0-2.928,2.928V74.59a2.928,2.928,0,0,1,5.856,0V68.735A2.925,2.925,0,0,0,91.262,65.807Z" transform="translate(166.858 107.236)"/>
    <path id="Path_189" data-name="Path 189" class="cls-4" d="M108.857,106H85.434V85.507A11.712,11.712,0,0,1,97.146,73.8h0a11.712,11.712,0,0,1,11.711,11.711Zm-.152,32.206H85.282V126.5a11.712,11.712,0,0,1,11.711-11.711h0A11.712,11.712,0,0,1,108.7,126.5Z" transform="translate(160.974 122.637)"/>
    <path id="Path_190" data-name="Path 190" class="cls-5" d="M97.146,73.8A11.712,11.712,0,0,0,85.434,85.507v5.856a11.711,11.711,0,0,1,23.423,0V85.507A11.71,11.71,0,0,0,97.146,73.8Zm-.152,40.99A11.712,11.712,0,0,0,85.282,126.5v5.856a11.711,11.711,0,0,1,23.423,0V126.5A11.712,11.712,0,0,0,96.993,114.786Z" transform="translate(160.974 122.637)"/>
    <path id="Path_191" data-name="Path 191" class="cls-4" d="M82.654,93.374h-7.32V79.467a3.661,3.661,0,0,1,3.66-3.66h0a3.661,3.661,0,0,1,3.66,3.66Z" transform="translate(141.796 126.514)"/>
    <path id="Path_192" data-name="Path 192" class="cls-5" d="M78.994,75.807a3.661,3.661,0,0,0-3.66,3.66v5.856a3.66,3.66,0,0,1,7.32,0V79.467A3.657,3.657,0,0,0,78.994,75.807Z" transform="translate(141.796 126.514)"/>
    <path id="Path_193" data-name="Path 193" class="cls-4" d="M71.154,93.374h-7.32V79.467a3.661,3.661,0,0,1,3.66-3.66h0a3.661,3.661,0,0,1,3.66,3.66Zm13.175,0h-7.32V79.467a3.661,3.661,0,0,1,3.66-3.66h0a3.661,3.661,0,0,1,3.66,3.66Z" transform="translate(119.626 126.514)"/>
    <path id="Path_194" data-name="Path 194" class="cls-5" d="M67.494,75.807a3.661,3.661,0,0,0-3.66,3.66v5.856a3.66,3.66,0,0,1,7.32,0V79.467A3.657,3.657,0,0,0,67.494,75.807Zm13.175,0a3.661,3.661,0,0,0-3.66,3.66v5.856a3.66,3.66,0,0,1,7.32,0V79.467A3.657,3.657,0,0,0,80.669,75.807Z" transform="translate(119.626 126.514)"/>
    <path id="Path_195" data-name="Path 195" class="cls-4" d="M61.334,108.417v-12.3a7.319,7.319,0,0,1,7.32-7.32h0a7.319,7.319,0,0,1,7.32,7.32v12.3m5.856,0v-12.3a7.319,7.319,0,0,1,7.32-7.32h0a7.319,7.319,0,0,1,7.32,7.32v12.3m5.856,0v-12.3a7.319,7.319,0,0,1,7.32-7.32h0a7.319,7.319,0,0,1,7.32,7.32v12.3" transform="translate(114.806 151.564)"/>
    <path id="Path_196" data-name="Path 196" class="cls-5" d="M68.654,88.8a7.319,7.319,0,0,0-7.32,7.32v5.856a7.32,7.32,0,0,1,14.639,0V96.121A7.319,7.319,0,0,0,68.654,88.8Zm20.495,0a7.319,7.319,0,0,0-7.32,7.32v5.856a7.32,7.32,0,0,1,14.639,0V96.121A7.319,7.319,0,0,0,89.148,88.8Zm20.495,0a7.319,7.319,0,0,0-7.32,7.32v5.856a7.32,7.32,0,0,1,14.639,0V96.121A7.319,7.319,0,0,0,109.643,88.8Z" transform="translate(114.806 151.564)"/>
    <path id="Path_197" data-name="Path 197" class="cls-1" d="M33.612,71.59l-8.784-8.783L16.045,71.59H4.334v87.835h40.99V71.59Z" transform="translate(4.92 101.452)"/>
    <path id="Path_198" data-name="Path 198" class="cls-4" d="M30.757,106H7.334V85.507A11.712,11.712,0,0,1,19.045,73.8h0A11.712,11.712,0,0,1,30.757,85.507Zm21.959-8.751H45.4V83.344a3.661,3.661,0,0,1,3.66-3.66h0a3.661,3.661,0,0,1,3.66,3.66Zm7.32,0h-7.32V83.344a3.661,3.661,0,0,1,3.66-3.66h0a3.661,3.661,0,0,1,3.66,3.66Zm13.175,0h-7.32V83.344a3.661,3.661,0,0,1,3.66-3.66h0a3.661,3.661,0,0,1,3.66,3.66Zm7.32,0H73.21V83.344a3.661,3.661,0,0,1,3.66-3.66h0a3.661,3.661,0,0,1,3.66,3.66Zm13.175,0h-7.32V83.344a3.661,3.661,0,0,1,3.66-3.66h0a3.661,3.661,0,0,1,3.66,3.66Zm7.32,0h-7.32V83.344a3.661,3.661,0,0,1,3.66-3.66h0a3.661,3.661,0,0,1,3.66,3.66Z" transform="translate(10.703 122.637)"/>
    <path id="Path_199" data-name="Path 199" class="cls-5" d="M19.045,73.8A11.712,11.712,0,0,0,7.334,85.507v5.856a11.711,11.711,0,0,1,23.423,0V85.507A11.71,11.71,0,0,0,19.045,73.8Zm30.01,5.888a3.661,3.661,0,0,0-3.66,3.66V89.2a3.66,3.66,0,0,1,7.32,0V83.344A3.657,3.657,0,0,0,49.056,79.684Zm7.32,0a3.661,3.661,0,0,0-3.66,3.66V89.2a3.66,3.66,0,0,1,7.32,0V83.344A3.657,3.657,0,0,0,56.375,79.684Zm13.175,0a3.661,3.661,0,0,0-3.66,3.66V89.2a3.66,3.66,0,0,1,7.32,0V83.344A3.657,3.657,0,0,0,69.55,79.684Zm7.32,0a3.661,3.661,0,0,0-3.66,3.66V89.2a3.66,3.66,0,0,1,7.32,0V83.344A3.657,3.657,0,0,0,76.87,79.684Zm20.495,0a3.661,3.661,0,0,0-3.66,3.66V89.2a3.66,3.66,0,0,1,7.32,0V83.344A3.657,3.657,0,0,0,97.365,79.684Zm-7.32,0a3.661,3.661,0,0,0-3.66,3.66V89.2a3.66,3.66,0,0,1,7.32,0V83.344A3.657,3.657,0,0,0,90.045,79.684Z" transform="translate(10.703 122.637)"/>
    <rect id="Rectangle_85" data-name="Rectangle 85" class="cls-1" width="52.701" height="166.887" transform="translate(117.584 93.991)"/>
    <path id="Path_200" data-name="Path 200" class="cls-4" d="M74.56,118.93H45.282V98.435A14.641,14.641,0,0,1,59.921,83.8h0A14.641,14.641,0,0,1,74.56,98.435Z" transform="translate(83.861 141.916)"/>
    <path id="Path_201" data-name="Path 201" class="cls-5" d="M59.921,83.8A14.641,14.641,0,0,0,45.282,98.435v5.856a14.639,14.639,0,0,1,29.278,0V98.435A14.639,14.639,0,0,0,59.921,83.8Z" transform="translate(83.861 141.916)"/>
    <rect id="Rectangle_86" data-name="Rectangle 86" class="cls-6" width="5.856" height="166.887" transform="translate(164.429 93.991)"/>
    <rect id="Rectangle_87" data-name="Rectangle 87" class="cls-6" width="5.856" height="166.887" transform="translate(117.584 93.991)"/>
    <rect id="Rectangle_88" data-name="Rectangle 88" class="cls-6" width="5.856" height="87.835" transform="translate(9.254 173.043)"/>
    <rect id="Rectangle_89" data-name="Rectangle 89" class="cls-6" width="5.856" height="87.835" transform="translate(44.388 173.043)"/>
    <rect id="Rectangle_90" data-name="Rectangle 90" class="cls-6" width="5.856" height="87.835" transform="translate(237.625 173.043)"/>
    <rect id="Rectangle_91" data-name="Rectangle 91" class="cls-6" width="5.856" height="87.835" transform="translate(272.759 173.043)"/>
    <rect id="Rectangle_92" data-name="Rectangle 92" class="cls-2" width="67.34" height="14.639" transform="translate(50.244 178.899)"/>
    <path id="Path_202" data-name="Path 202" class="cls-2" d="M4.334,83.158l8.784-26.351H36.54l8.784,26.351H33.612l-8.784-8.783-8.784,8.783Z" transform="translate(4.92 89.885)"/>
    <rect id="Rectangle_93" data-name="Rectangle 93" class="cls-3" width="63.85" height="5.856" transform="translate(51.555 187.682)"/>
    <rect id="Rectangle_94" data-name="Rectangle 94" class="cls-7" width="52.701" height="5.856" transform="translate(117.584 93.991)"/>
    <path id="Path_203" data-name="Path 203" class="cls-1" d="M47.334,47.807v5.856L53.19,56.59v5.856h5.856V56.59L64.9,53.663V47.807Z" transform="translate(87.817 72.535)"/>
    <path id="Path_204" data-name="Path 204" class="cls-6" d="M53.19,53.663V47.807H47.334v5.856l8.784,2.928v5.856h2.928V56.59Z" transform="translate(87.817 72.535)"/>
    <path id="Path_205" data-name="Path 205" class="cls-6" d="M55.19,47.807v5.856L49.334,56.59v5.856h2.928V56.59l8.784-2.928V47.807Z" transform="translate(91.672 72.535)"/>
    <path id="Path_206" data-name="Path 206" class="cls-4" d="M55.118,83.158H46.334V61.2a4.393,4.393,0,0,1,4.392-4.392h0A4.393,4.393,0,0,1,55.118,61.2Zm14.639,0H60.973V61.2a4.393,4.393,0,0,1,4.392-4.392h0A4.393,4.393,0,0,1,69.757,61.2ZM58.045,127.075H46.334V103.652A5.854,5.854,0,0,1,52.19,97.8h0a5.854,5.854,0,0,1,5.856,5.856Zm11.711,0H58.045V103.652A5.854,5.854,0,0,1,63.9,97.8h0a5.854,5.854,0,0,1,5.856,5.856Z" transform="translate(85.889 89.885)"/>
    <rect id="Rectangle_95" data-name="Rectangle 95" class="cls-7" width="5.856" height="67.34" transform="translate(231.769 193.538)"/>
    <rect id="Rectangle_96" data-name="Rectangle 96" class="cls-7" width="5.856" height="67.34" transform="translate(170.285 193.538)"/>
    <rect id="Rectangle_97" data-name="Rectangle 97" class="cls-7" width="5.856" height="67.34" transform="translate(111.728 193.538)"/>
    <rect id="Rectangle_98" data-name="Rectangle 98" class="cls-7" width="5.856" height="67.34" transform="translate(50.244 193.538)"/>
    <path id="Path_207" data-name="Path 207" class="cls-4" d="M68.654,93.374h-7.32V79.467a3.661,3.661,0,0,1,3.66-3.66h0a3.661,3.661,0,0,1,3.66,3.66Zm27.814,0h-7.32V79.467a3.661,3.661,0,0,1,3.66-3.66h0a3.661,3.661,0,0,1,3.66,3.66Zm20.495,0h-7.32V79.467a3.661,3.661,0,0,1,3.66-3.66h0a3.661,3.661,0,0,1,3.66,3.66Z" transform="translate(114.806 126.514)"/>
    <rect id="Rectangle_99" data-name="Rectangle 99" class="cls-4" width="7.32" height="7.32" transform="translate(176.14 225.712)"/>
    <rect id="Rectangle_100" data-name="Rectangle 100" class="cls-4" width="7.32" height="7.32" transform="translate(183.46 225.712)"/>
    <rect id="Rectangle_101" data-name="Rectangle 101" class="cls-4" width="7.32" height="7.32" transform="translate(196.635 225.712)"/>
    <rect id="Rectangle_102" data-name="Rectangle 102" class="cls-4" width="7.32" height="7.32" transform="translate(203.955 225.712)"/>
    <rect id="Rectangle_103" data-name="Rectangle 103" class="cls-4" width="7.32" height="7.32" transform="translate(217.13 225.712)"/>
    <rect id="Rectangle_104" data-name="Rectangle 104" class="cls-4" width="7.32" height="7.32" transform="translate(224.45 225.712)"/>
    <rect id="Rectangle_105" data-name="Rectangle 105" class="cls-4" width="7.32" height="7.32" transform="translate(56.099 225.712)"/>
    <rect id="Rectangle_106" data-name="Rectangle 106" class="cls-4" width="7.32" height="7.32" transform="translate(63.419 225.712)"/>
    <rect id="Rectangle_107" data-name="Rectangle 107" class="cls-4" width="7.32" height="7.32" transform="translate(76.594 225.712)"/>
    <rect id="Rectangle_108" data-name="Rectangle 108" class="cls-4" width="7.32" height="7.32" transform="translate(83.914 225.712)"/>
    <rect id="Rectangle_109" data-name="Rectangle 109" class="cls-4" width="7.32" height="7.32" transform="translate(97.089 225.712)"/>
    <rect id="Rectangle_110" data-name="Rectangle 110" class="cls-4" width="7.32" height="7.32" transform="translate(104.408 225.712)"/>
    <path id="Path_208" data-name="Path 208" class="cls-7" d="M111.612,71.59l-8.784-8.783L94.045,71.59H82.334v5.856H94.045l8.784-8.784,8.784,8.784h11.711V71.59Z" transform="translate(155.291 101.452)"/>
    <path id="Path_209" data-name="Path 209" class="cls-7" d="M33.612,71.59l-8.784-8.783L16.045,71.59H4.334v5.856H16.045l8.784-8.784,8.784,8.784H45.324V71.59Z" transform="translate(4.92 101.452)"/>
    <path id="Path_210" data-name="Path 210" class="cls-4" d="M16.19,77.518H10.334V68.735a2.929,2.929,0,0,1,2.928-2.928h0a2.929,2.929,0,0,1,2.928,2.928Z" transform="translate(16.487 107.236)"/>
    <path id="Path_211" data-name="Path 211" class="cls-5" d="M13.262,65.807a2.929,2.929,0,0,0-2.928,2.928V74.59a2.928,2.928,0,0,1,5.856,0V68.735A2.925,2.925,0,0,0,13.262,65.807Z" transform="translate(16.487 107.236)"/>
    <path id="Path_212" data-name="Path 212" class="cls-2" d="M54.354,75.436H41.334L58.9,19.807H76.468L94.035,75.436h-10.4" transform="translate(76.25 18.555)"/>
    <rect id="Rectangle_111" data-name="Rectangle 111" class="cls-2" width="40.99" height="17.567" transform="translate(123.196 58.857)"/>
    <path id="Path_213" data-name="Path 213" class="cls-1" d="M45.387,65.869V51.23H51l9.027-23.423,8.54,23.423h6.1V65.869" transform="translate(84.063 33.978)"/>
    <path id="Path_214" data-name="Path 214" class="cls-7" d="M56.855,51.23l6.02-15.617-2.849-7.806L51,51.23H45.387V65.869h5.856V51.23Z" transform="translate(84.063 33.978)"/>
    <path id="Path_215" data-name="Path 215" class="cls-7" d="M61.152,51.23V65.869h5.856V51.23Zm-6.1,0h5.856l-8.54-23.423-3.01,7.809Z" transform="translate(91.721 33.978)"/>
    <circle id="Ellipse_16" data-name="Ellipse 16" class="cls-8" cx="8.784" cy="8.784" r="8.784" transform="translate(135.151 96.919)"/>
    <path id="Path_216" data-name="Path 216" class="cls-3" d="M51.3,39.807a8.922,8.922,0,0,0-1.464.146,8.756,8.756,0,0,1,0,17.274,8.615,8.615,0,0,0,1.464.146,8.784,8.784,0,1,0,0-17.567Z" transform="translate(92.636 57.112)"/>
    <path id="Path_217" data-name="Path 217" class="cls-9" d="M50.262,48.591a8.768,8.768,0,0,1,7.32-8.637,8.614,8.614,0,0,0-1.464-.146,8.784,8.784,0,1,0,0,17.567,8.924,8.924,0,0,0,1.464-.146A8.773,8.773,0,0,1,50.262,48.591Z" transform="translate(87.817 57.112)"/>
    <path id="Path_218" data-name="Path 218" class="cls-4" d="M30.7,111.219H7.282V99.507A11.712,11.712,0,0,1,18.993,87.8h0A11.712,11.712,0,0,1,30.7,99.507Z" transform="translate(10.603 149.627)"/>
    <path id="Path_219" data-name="Path 219" class="cls-5" d="M18.993,87.8A11.712,11.712,0,0,0,7.282,99.507v5.856a11.711,11.711,0,0,1,23.423,0V99.507A11.712,11.712,0,0,0,18.993,87.8Z" transform="translate(10.603 149.627)"/>
    <path id="Path_220" data-name="Path 220" class="cls-4" d="M20.334,108.417v-12.3a7.319,7.319,0,0,1,7.32-7.32h0a7.319,7.319,0,0,1,7.32,7.32v12.3m5.856,0v-12.3a7.319,7.319,0,0,1,7.32-7.32h0a7.319,7.319,0,0,1,7.32,7.32v12.3m5.856,0v-12.3a7.319,7.319,0,0,1,7.32-7.32h0a7.319,7.319,0,0,1,7.32,7.32v12.3" transform="translate(35.765 151.564)"/>
    <path id="Path_221" data-name="Path 221" class="cls-5" d="M27.654,88.8a7.319,7.319,0,0,0-7.32,7.32v5.856a7.32,7.32,0,0,1,14.639,0V96.121A7.319,7.319,0,0,0,27.654,88.8Zm20.495,0a7.319,7.319,0,0,0-7.32,7.32v5.856a7.32,7.32,0,0,1,14.639,0V96.121A7.319,7.319,0,0,0,48.148,88.8Zm20.495,0a7.319,7.319,0,0,0-7.32,7.32v5.856a7.32,7.32,0,0,1,14.639,0V96.121A7.319,7.319,0,0,0,68.643,88.8Z" transform="translate(35.765 151.564)"/>
    <path id="Path_222" data-name="Path 222" class="cls-2" d="M82.281,83.158l8.783-26.351h23.423l8.784,26.351H111.559l-8.784-8.783L94,83.158Z" transform="translate(155.189 89.885)"/>
    <path id="Path_223" data-name="Path 223" class="cls-3" d="M111.56,69.59l-8.784-8.784L93.993,69.59H84.232l-1.95,5.856H93.993l8.784-8.783,8.784,8.783h11.711l-1.953-5.856Z" transform="translate(155.191 97.597)"/>
    <path id="Path_224" data-name="Path 224" class="cls-3" d="M91.066,56.807,82.282,83.158h5.856l8.783-26.351Z" transform="translate(155.191 89.885)"/>
    <path id="Path_225" data-name="Path 225" class="cls-3" d="M90.282,65.735l5.856,5.856h5.856L93.21,62.807Z" transform="translate(170.613 101.452)"/>
    <path id="Path_226" data-name="Path 226" class="cls-3" d="M97.138,56.807H91.282l8.784,26.351h5.856Z" transform="translate(172.541 89.885)"/>
    <path id="Path_227" data-name="Path 227" class="cls-3" d="M33.56,69.59l-8.784-8.784L15.993,69.59H6.232l-1.95,5.856H15.993l8.784-8.783,8.784,8.783H45.272L43.319,69.59Z" transform="translate(4.82 97.597)"/>
    <path id="Path_228" data-name="Path 228" class="cls-3" d="M13.066,56.807,4.282,83.158h5.856l8.784-26.351Z" transform="translate(4.82 89.885)"/>
    <path id="Path_229" data-name="Path 229" class="cls-3" d="M19.138,56.807H13.282l8.784,26.351h5.856Z" transform="translate(22.17 89.885)"/>
    <path id="Path_230" data-name="Path 230" class="cls-3" d="M93.065,62.807,84.282,71.59h5.856l5.856-5.856Z" transform="translate(159.046 101.452)"/>
    <rect id="Rectangle_112" data-name="Rectangle 112" class="cls-9" width="5.856" height="14.639" transform="translate(111.728 178.899)"/>
    <rect id="Rectangle_113" data-name="Rectangle 113" class="cls-9" width="5.856" height="14.639" transform="translate(50.244 178.899)"/>
    <rect id="Rectangle_114" data-name="Rectangle 114" class="cls-9" width="5.856" height="14.639" transform="translate(231.769 178.899)"/>
    <rect id="Rectangle_115" data-name="Rectangle 115" class="cls-9" width="5.856" height="14.639" transform="translate(170.285 178.899)"/>
    <rect id="Rectangle_116" data-name="Rectangle 116" class="cls-8" width="5.856" height="5.856" transform="translate(146.862 158.404) rotate(90)"/>
    <path id="Path_231" data-name="Path 231" class="cls-5" d="M50.726,56.807A4.393,4.393,0,0,0,46.334,61.2v5.856a4.392,4.392,0,1,1,8.784,0V61.2A4.39,4.39,0,0,0,50.726,56.807Zm14.639,0A4.393,4.393,0,0,0,60.973,61.2v5.856a4.392,4.392,0,0,1,8.784,0V61.2A4.39,4.39,0,0,0,65.365,56.807Z" transform="translate(85.889 89.885)"/>
    <g id="Group_14" data-name="Group 14" transform="translate(132.223 187.682)">
      <path id="Path_232" data-name="Path 232" class="cls-5" d="M52.19,70.807a5.854,5.854,0,0,0-5.856,5.856v5.856a5.856,5.856,0,0,1,11.711,0V76.663A5.854,5.854,0,0,0,52.19,70.807Z" transform="translate(-46.334 -70.807)"/>
    </g>
    <g id="Group_15" data-name="Group 15" transform="translate(143.934 187.682)">
      <path id="Path_233" data-name="Path 233" class="cls-5" d="M56.19,70.807a5.854,5.854,0,0,0-5.856,5.856v5.856a5.856,5.856,0,1,1,11.711,0V76.663A5.854,5.854,0,0,0,56.19,70.807Z" transform="translate(-50.334 -70.807)"/>
    </g>
    <g id="Group_16" data-name="Group 16" transform="translate(176.14 202.321)">
      <path id="Path_234" data-name="Path 234" class="cls-5" d="M64.994,75.807a3.661,3.661,0,0,0-3.66,3.66v5.856a3.66,3.66,0,0,1,7.32,0V79.467A3.657,3.657,0,0,0,64.994,75.807Z" transform="translate(-61.334 -75.807)"/>
    </g>
    <g id="Group_17" data-name="Group 17" transform="translate(203.955 202.321)">
      <path id="Path_235" data-name="Path 235" class="cls-5" d="M74.494,75.807a3.661,3.661,0,0,0-3.66,3.66v5.856a3.66,3.66,0,0,1,7.32,0V79.467A3.657,3.657,0,0,0,74.494,75.807Z" transform="translate(-70.834 -75.807)"/>
    </g>
    <g id="Group_18" data-name="Group 18" transform="translate(224.45 202.321)">
      <path id="Path_236" data-name="Path 236" class="cls-5" d="M81.494,75.807a3.661,3.661,0,0,0-3.66,3.66v5.856a3.66,3.66,0,0,1,7.32,0V79.467A3.657,3.657,0,0,0,81.494,75.807Z" transform="translate(-77.834 -75.807)"/>
    </g>
    <g id="Group_19" data-name="Group 19" transform="translate(1.782 10.182)">
      <path id="Path_237" data-name="Path 237" class="cls-10" d="M284.318,259.048h-4.392V174.226h1.464a1.464,1.464,0,1,0,0-2.928h-1.85l-7.809-23.423h.9a1.464,1.464,0,1,0,0-2.928h-4.4V131.772a1.464,1.464,0,1,0-2.928,0v4.392H250.668v-4.392a1.464,1.464,0,0,0-2.928,0v13.175h-4.374a1.464,1.464,0,0,0,0,2.928h.849l-7.791,23.338h-1.877a1.464,1.464,0,0,0,0,2.928h1.464v2.928H171.6V93.625a1.349,1.349,0,0,0-.059-.287.9.9,0,0,0-.012-.155l-5.821-18.428a1.566,1.566,0,0,0,.032-.161V52.636a1.464,1.464,0,0,0-2.928,0v4.392h-2.7L154.562,39.46h.931a1.464,1.464,0,1,0,0-2.928h-1.42V29.286l-.044-5.856a1.466,1.466,0,0,0-1.464-1.452h-.012a1.464,1.464,0,0,0-1.452,1.476l.032,4.38h-5.888V11.646a1.464,1.464,0,0,0-2.928,0V27.834h-5.823l-.032-4.4A1.466,1.466,0,0,0,135,21.978h-.012a1.464,1.464,0,0,0-1.452,1.476l.044,5.856v7.223h-1.508a1.464,1.464,0,0,0,0,2.928H133l-5.548,17.567h-2.7V52.636a1.464,1.464,0,1,0-2.928,0V74.594a1.424,1.424,0,0,0,.032.161l-5.821,18.428c-.015.05,0,.1-.012.155a1.349,1.349,0,0,0-.059.287v83.443H51.552v-2.843H53.1a1.464,1.464,0,0,0,0-2.928H51.186l-7.809-23.423h.9a1.464,1.464,0,1,0,0-2.928h-4.4V131.772a1.464,1.464,0,0,0-2.928,0v4.392H22.315v-4.392a1.464,1.464,0,0,0-2.928,0v13.175H15.019a1.464,1.464,0,1,0,0,2.928h.849L8.048,171.3H6.2a1.464,1.464,0,0,0,0,2.928H7.638v84.822H3.246a1.464,1.464,0,1,0,0,2.928H284.318a1.464,1.464,0,0,0,0-2.928ZM256.483,139.092h2.928v5.771h-2.928Zm8.824,5.771h-2.972v-5.771h2.972Zm-11.752-5.771v5.771h-2.884v-5.771Zm15.09,8.784,7.809,23.423h-9.068l-8.356-8.435a1.461,1.461,0,0,0-1.036-.433h0a1.46,1.46,0,0,0-1.036.43l-8.4,8.438h-4.8a1.478,1.478,0,0,0-.425-.085h-3.818l7.791-23.338Zm-50.2,70.183V205.615a2.2,2.2,0,1,1,4.392,0v12.443Zm7.32-12.443a2.2,2.2,0,1,1,4.392,0v12.443h-4.392Zm2.2-5.124a5.108,5.108,0,0,0-3.66,1.549,5.116,5.116,0,0,0-8.784,3.575v12.443h-2.928V205.615a5.116,5.116,0,0,0-8.784-3.575,5.116,5.116,0,0,0-8.784,3.575v12.443h-2.928V205.615a5.116,5.116,0,0,0-8.784-3.575,5.116,5.116,0,0,0-8.784,3.575v12.443H171.6V194.636h64.412v23.423h-2.928V205.615A5.129,5.129,0,0,0,227.957,200.491Zm-30.01,17.567V205.615a2.2,2.2,0,0,1,4.392,0v12.443Zm7.32-12.443a2.2,2.2,0,0,1,4.392,0v12.443h-4.392Zm-27.814,12.443V205.615a2.2,2.2,0,1,1,4.392,0v12.443Zm7.32-12.443a2.2,2.2,0,0,1,4.392,0v12.443h-4.392Zm-51.237,9.515V193.172a4.392,4.392,0,1,1,8.784,0V215.13Zm11.711-21.959a4.392,4.392,0,0,1,8.784,0V215.13h-8.784Zm4.392-7.32a7.294,7.294,0,0,0-5.856,2.972,7.3,7.3,0,0,0-13.175,4.348V215.13H118.9V159.5h11.711v11.711h-1.464a1.464,1.464,0,0,0-1.464,1.464v5.856A1.464,1.464,0,0,0,129.143,180h29.278a1.464,1.464,0,0,0,1.464-1.464v-5.856a1.464,1.464,0,0,0-1.464-1.464h-1.464V159.5h11.711V215.13H156.957V193.172A7.326,7.326,0,0,0,149.638,185.852ZM98.4,218.058V205.615a2.2,2.2,0,0,1,4.392,0v12.443Zm7.32-12.443a2.2,2.2,0,0,1,4.392,0v12.443H105.72Zm2.2-5.124a5.108,5.108,0,0,0-3.66,1.549,5.116,5.116,0,0,0-8.784,3.575v12.443H92.545V205.615a5.116,5.116,0,0,0-8.784-3.575,5.116,5.116,0,0,0-8.784,3.575v12.443H72.05V205.615a5.116,5.116,0,0,0-8.784-3.575,5.116,5.116,0,0,0-8.784,3.575v12.443H51.555V194.636h64.412v23.423H113.04V205.615A5.129,5.129,0,0,0,107.916,200.491Zm-30.01,17.567V205.615a2.2,2.2,0,0,1,4.392,0v12.443Zm7.32-12.443a2.2,2.2,0,0,1,4.392,0v12.443H85.225ZM57.411,218.058V205.615a2.2,2.2,0,1,1,4.392,0v12.443Zm7.32-12.443a2.2,2.2,0,0,1,4.392,0v12.443H64.73ZM118.9,95.089h10.247a1.464,1.464,0,0,0,1.464-1.464v-7.32h4.149c.009,0,.015-.006.023-.006a1.283,1.283,0,0,0,.211-.044,1.445,1.445,0,0,0,1.121-.878c0-.006.006-.009.009-.015l7.624-19.78,7.2,19.754c0,.009.012.012.018.02a1.516,1.516,0,0,0,.615.711,1.42,1.42,0,0,0,.744.231h4.638v7.3c0,.006,0,.009,0,.015a1.464,1.464,0,0,0,1.464,1.464h10.25v.269a4.257,4.257,0,0,0-4.392.872,4.373,4.373,0,0,0-7.32,3.25V102.4a1.464,1.464,0,1,0,2.928,0V99.475a1.464,1.464,0,1,1,2.928,0V102.4a1.464,1.464,0,1,0,2.928,0V99.475a1.464,1.464,0,1,1,2.928,0v19.031H118.9V99.475a1.464,1.464,0,1,1,2.928,0V102.4a1.464,1.464,0,0,0,2.928,0V99.475a1.464,1.464,0,1,1,2.928,0V102.4a1.464,1.464,0,1,0,2.928,0V99.475a4.373,4.373,0,0,0-7.32-3.25,4.257,4.257,0,0,0-4.392-.872v-.264Zm29.278,81.979v-2.928H151.1v2.928Zm-5.856,0v-2.928h2.928v2.928Zm-5.856,0v-2.928h2.928v2.928Zm-5.856,0v-2.928h2.928v2.928Zm2.928-26.351a2.928,2.928,0,0,1,5.856,0v20.495h-5.856Zm11.711,20.495h-2.928v-5.856h2.928Zm0-8.783h-2.928V159.5h2.928Zm8.784,11.711h2.928v2.928h-2.928Zm-5.856-2.928V150.718a2.928,2.928,0,1,1,5.856,0v20.495Zm2.928-26.351a5.862,5.862,0,0,0-5.856,5.856v5.856h-2.928v-5.856a5.856,5.856,0,1,0-11.711,0v5.856H118.9V121.44h14.639v4.392a1.466,1.466,0,0,0,.808,1.309l5.048,2.521v4.951a1.464,1.464,0,0,0,1.464,1.464h1.464v5.856a1.464,1.464,0,0,0,0,2.928h2.928a1.464,1.464,0,0,0,0-2.928v-5.856h1.464a1.464,1.464,0,0,0,1.464-1.464v-4.951l5.048-2.521a1.466,1.466,0,0,0,.808-1.309V121.44h14.639v35.134H156.957v-5.856A5.862,5.862,0,0,0,151.1,144.862Zm-8.784-11.711v-4.392a1.466,1.466,0,0,0-.808-1.309l-5.048-2.521v-3.487H151.1v3.487l-5.048,2.521a1.466,1.466,0,0,0-.808,1.309v4.392ZM236.009,180v11.711H171.6V180Zm-73.2-120.041v5.633l-1.78-5.633ZM136.506,30.762h2.884v5.771h-2.884Zm8.74,0v5.771h-2.928V30.762Zm5.9,5.771h-2.972V30.762h2.972ZM124.751,64.347V59.955h1.78l-1.78,5.633Zm11.293-24.8H151.52l16.615,52.616h-8.248v-7.32a1.464,1.464,0,0,0-1.464-1.464h-5.077l-8.186-22.459a1.464,1.464,0,0,0-1.361-.963h-.015a1.463,1.463,0,0,0-1.367.937l-8.666,22.486h-4.605a1.464,1.464,0,0,0-1.464,1.464v7.32h-8.248ZM115.968,180v11.711H51.555V180Zm-87.835-40.9H31.06v5.771H28.133Zm8.827,5.771H33.988v-5.771H36.96ZM25.2,139.092v5.771H22.321v-5.771Zm-6.248,8.784H40.3L48.106,171.3h-9.07l-8.356-8.435a1.461,1.461,0,0,0-1.036-.433h0a1.46,1.46,0,0,0-1.036.43l-8.4,8.438h-9.07Zm-8.391,36.513V181.46a1.464,1.464,0,0,1,2.928,0v2.928a1.464,1.464,0,0,0,2.928,0V181.46a1.464,1.464,0,0,1,2.928,0v2.928a1.464,1.464,0,0,0,2.928,0V181.46a4.373,4.373,0,0,0-7.32-3.25,4.257,4.257,0,0,0-4.392-.872v-3.112H20.813a1.46,1.46,0,0,0,1.036-.43l7.785-7.823,7.747,7.82a1.462,1.462,0,0,0,1.039.433H48.627v3.112a4.257,4.257,0,0,0-4.392.872,4.373,4.373,0,0,0-7.32,3.25v2.928a1.464,1.464,0,0,0,2.928,0V181.46a1.464,1.464,0,0,1,2.928,0v2.928a1.464,1.464,0,0,0,2.928,0V181.46a1.464,1.464,0,0,1,2.928,0v77.588H42.619v-10.28a13.175,13.175,0,1,0-26.351,0v10.28h-5.7ZM19.2,259.016V248.768a10.247,10.247,0,1,1,20.495,0v10.247Zm32.358-38.03h64.412v38.062H113.04V247.319a8.784,8.784,0,0,0-17.567,0v11.729H92.545V247.319a8.784,8.784,0,1,0-17.567,0v11.729H72.05V247.319a8.784,8.784,0,1,0-17.567,0v11.729H51.555V220.986Zm58.557,38.062H98.4V247.319a5.856,5.856,0,0,1,11.711,0Zm-20.495,0H77.906V247.319a5.856,5.856,0,0,1,11.711,0Zm-20.495,0H57.411V247.319a5.856,5.856,0,0,1,11.711,0Zm49.773-40.99h49.773v40.99h-8.936V239.985a16.1,16.1,0,1,0-32.206,0v19.063H118.9v-40.99Zm11.559,40.957V239.985a13.175,13.175,0,1,1,26.351,0v19.031Zm41.142-38.03h64.412v38.062h-2.928V247.319a8.784,8.784,0,1,0-17.567,0v11.729h-2.928V247.319a8.784,8.784,0,0,0-17.567,0v11.729h-2.928V247.319a8.784,8.784,0,0,0-17.567,0v11.729H171.6Zm58.557,38.062H218.442V247.319a5.856,5.856,0,0,1,11.711,0Zm-20.495,0H197.947V247.319a5.856,5.856,0,0,1,11.711,0Zm-20.495,0H177.452V247.319a5.856,5.856,0,0,1,11.711,0Zm58.4-.032V248.768a10.247,10.247,0,1,1,20.495,0v10.247Zm23.423.032v-10.28a13.175,13.175,0,1,0-26.351,0v10.28h-5.7V181.46a1.464,1.464,0,0,1,2.928,0v2.928a1.464,1.464,0,0,0,2.928,0V181.46a1.464,1.464,0,0,1,2.928,0v2.928a1.464,1.464,0,0,0,2.928,0V181.46a4.373,4.373,0,0,0-7.32-3.25,4.257,4.257,0,0,0-4.392-.872v-3.112h10.224a1.46,1.46,0,0,0,1.036-.43l7.785-7.823,7.747,7.82a1.462,1.462,0,0,0,1.039.433H277v3.112a4.257,4.257,0,0,0-4.392.872,4.373,4.373,0,0,0-7.32,3.25v2.928a1.464,1.464,0,1,0,2.928,0V181.46a1.464,1.464,0,0,1,2.928,0v2.928a1.464,1.464,0,1,0,2.928,0V181.46a1.464,1.464,0,1,1,2.928,0v77.588Z" transform="translate(-1.782 -10.182)"/>
      <path id="Path_238" data-name="Path 238" class="cls-10" d="M57.029,59.677A10.247,10.247,0,1,0,46.782,49.429,10.259,10.259,0,0,0,57.029,59.677Zm0-17.567a7.32,7.32,0,1,1-7.32,7.32A7.326,7.326,0,0,1,57.029,42.11Z" transform="translate(84.971 45.725)"/>
      <path id="Path_239" data-name="Path 239" class="cls-10" d="M134.141,47.038c.026,0,.05-.015.076-.015s.05.015.076.015h4.237a1.464,1.464,0,0,0,0-2.928H135.6V42.646a1.464,1.464,0,1,0-2.928,0v2.928A1.469,1.469,0,0,0,134.141,47.038Zm126.8,97.392a13.093,13.093,0,0,0-25.229-.006,1.407,1.407,0,0,0-.17.55,13.045,13.045,0,0,0-.389,3.045v20.495a1.464,1.464,0,0,0,1.464,1.464h23.423a1.464,1.464,0,0,0,1.464-1.464V148.019a13.116,13.116,0,0,0-.4-3.071A1.514,1.514,0,0,0,260.945,144.429Zm-22.866,3.587a10,10,0,0,1,.146-1.432H241v2.928h-2.925Zm5.853-1.432h2.928v2.928h-2.928Zm2.928,5.856v14.607h-2.928V152.44Zm2.928,0h2.928v14.607h-2.928Zm0-2.928v-2.928h2.928v2.928Zm5.856-2.928h2.784a10.049,10.049,0,0,1,.146,1.432v1.5h-2.931Zm-7.317-8.816a10.239,10.239,0,0,1,9.237,5.888H239.089A10.234,10.234,0,0,1,248.326,137.768ZM238.079,152.44H241v14.607h-2.925Zm17.564,14.607V152.44h2.931v14.607Zm-247.4,2.928H31.667a1.464,1.464,0,0,0,1.464-1.464V148.016a13.116,13.116,0,0,0-.4-3.071,1.4,1.4,0,0,0-.161-.515,13.093,13.093,0,0,0-25.229-.006,1.407,1.407,0,0,0-.17.55,13.044,13.044,0,0,0-.389,3.045v20.495A1.459,1.459,0,0,0,8.244,169.975ZM30.2,148.016v1.5H27.272v-2.928h2.784A9.6,9.6,0,0,1,30.2,148.016Zm-5.859,1.5H21.416v-2.928h2.928Zm-2.928,2.928h2.928v14.607H21.416Zm-2.928,14.607H15.561V152.44h2.928Zm0-17.535H15.561v-2.928h2.928Zm-5.856,0H9.708v-1.5a10.007,10.007,0,0,1,.146-1.432h2.779ZM9.708,152.44h2.925v14.607H9.708Zm17.564,14.607V152.44H30.2v14.607Zm-7.317-29.278a10.239,10.239,0,0,1,9.237,5.888H10.718A10.234,10.234,0,0,1,19.955,137.768Zm146.392,36.6h14.639a1.464,1.464,0,0,0,1.464-1.464v-7.32a1.464,1.464,0,0,0-1.464-1.464H166.347a1.464,1.464,0,0,0-1.464,1.464v7.32A1.464,1.464,0,0,0,166.347,174.366Zm13.175-2.928h-4.392v-4.392h4.392Zm-11.711-4.392H172.2v4.392h-4.392Zm19.031,7.32h14.639a1.464,1.464,0,0,0,1.464-1.464v-7.32a1.464,1.464,0,0,0-1.464-1.464H186.842a1.464,1.464,0,0,0-1.464,1.464v7.32A1.464,1.464,0,0,0,186.842,174.366Zm13.175-2.928h-4.392v-4.392h4.392Zm-11.711-4.392H192.7v4.392h-4.392Zm19.031,7.32h14.639a1.464,1.464,0,0,0,1.464-1.464v-7.32a1.464,1.464,0,0,0-1.464-1.464H207.337a1.464,1.464,0,0,0-1.464,1.464v7.32A1.464,1.464,0,0,0,207.337,174.366Zm13.175-2.928H216.12v-4.392h4.392ZM208.8,167.047h4.392v4.392H208.8ZM17.028,126.089h5.856a1.464,1.464,0,0,0,1.464-1.464v-8.784a4.392,4.392,0,1,0-8.784,0v8.784A1.464,1.464,0,0,0,17.028,126.089Zm1.464-10.247a1.464,1.464,0,0,1,2.928,0v7.32H18.491ZM245.4,126.089h5.856a1.464,1.464,0,0,0,1.464-1.464v-8.784a4.392,4.392,0,1,0-8.784,0v8.784A1.464,1.464,0,0,0,245.4,126.089Zm1.464-10.247a1.464,1.464,0,1,1,2.928,0v7.32h-2.928ZM46.306,174.366H60.945a1.464,1.464,0,0,0,1.464-1.464v-7.32a1.464,1.464,0,0,0-1.464-1.464H46.306a1.464,1.464,0,0,0-1.464,1.464v7.32A1.464,1.464,0,0,0,46.306,174.366Zm13.175-2.928H55.089v-4.392h4.392ZM47.77,167.047h4.392v4.392H47.77Zm19.031,7.32H81.44A1.464,1.464,0,0,0,82.9,172.9v-7.32a1.464,1.464,0,0,0-1.464-1.464H66.8a1.464,1.464,0,0,0-1.464,1.464v7.32A1.464,1.464,0,0,0,66.8,174.366Zm13.175-2.928H75.584v-4.392h4.392Zm-11.711-4.392h4.392v4.392H68.265Zm19.031,7.32h14.639A1.464,1.464,0,0,0,103.4,172.9v-7.32a1.464,1.464,0,0,0-1.464-1.464H87.3a1.464,1.464,0,0,0-1.464,1.464v7.32A1.464,1.464,0,0,0,87.3,174.366Zm13.175-2.928H96.079v-4.392h4.392Zm-11.711-4.392h4.392v4.392H88.759Z" transform="translate(7.859 49.581)"/>
    </g>
  </g>
</svg>
