<svg xmlns="http://www.w3.org/2000/svg" width="316.367" height="189.931" viewBox="0 0 316.367 189.931">
    <defs>
        <style>
            .prefix__cls-1{fill:#232122;fill-rule:evenodd}.prefix__cls-6{fill:#242425}.prefix__cls-7{fill:#6f6f6f}
        </style>
    </defs>
    <g id="prefix__MLH" transform="translate(-38.94 -107.28)">
        <path id="prefix__Path_147" d="M54.964 233.583a8.129 8.129 0 0 1 .925.555 1.914 1.914 0 0 1 .555.925 4.624 4.624 0 0 1 .185 1.11v13.5c0 .092 0 .277-.092.277a.342.342 0 0 1-.277.092h-3.33a.324.324 0 0 1-.37-.37v-12.205h-2.682v12.207c0 .092 0 .277-.092.277a.324.324 0 0 1-.277.092h-3.043c-.092 0-.277 0-.277-.092a.342.342 0 0 1-.092-.277v-12.207h-2.683v12.207a.435.435 0 0 1-.462.462h-3.33a.435.435 0 0 1-.462-.462V233.86a.435.435 0 0 1 .462-.462H54.04a1.137 1.137 0 0 1 .924.185z" class="prefix__cls-1" data-name="Path 147" transform="translate(-.016 -9.485)"/>
        <path id="prefix__Path_148" d="M73.459 233.3a4.623 4.623 0 0 1 1.11.185 8.128 8.128 0 0 1 .925.555 1.914 1.914 0 0 1 .555.925 4.624 4.624 0 0 1 .185 1.11v13.493c0 .092 0 .277-.092.277a.342.342 0 0 1-.277.092h-3.331c-.092 0-.277 0-.277-.092a.342.342 0 0 1-.092-.277v-4.254c0-.092 0-.277-.092-.277a.342.342 0 0 0-.277-.092h-4.718c-.092 0-.277 0-.277.092a.342.342 0 0 0-.092.277v4.254a.435.435 0 0 1-.462.462h-3.285a.435.435 0 0 1-.462-.462v-13.494a4.624 4.624 0 0 1 .185-1.11 8.128 8.128 0 0 1 .555-.925 1.914 1.914 0 0 1 .925-.555 2.348 2.348 0 0 1 1.11-.185zm-1.48 7.944v-4.152h-5.641v4.152z" class="prefix__cls-1" data-name="Path 148" transform="translate(-1.772 -9.479)"/>
        <path id="prefix__Path_149" d="M92.609 233.49a.342.342 0 0 1 .092.277v13.493a4.624 4.624 0 0 1-.185 1.11 8.131 8.131 0 0 1-.555.925 1.914 1.914 0 0 1-.925.555 2.349 2.349 0 0 1-1.11.185h-7.212a4.623 4.623 0 0 1-1.11-.185 8.127 8.127 0 0 1-.925-.555 1.914 1.914 0 0 1-.555-.925 2.349 2.349 0 0 1-.185-1.11v-5.086a.435.435 0 0 1 .462-.462h3.292a.435.435 0 0 1 .462.462v3.422a.324.324 0 0 0 .37.37h3.422c.092 0 .277 0 .277-.092a.342.342 0 0 0 .092-.277V233.86c0-.092 0-.277.092-.277a.342.342 0 0 1 .277-.092h3.329a.407.407 0 0 1 .592 0z" class="prefix__cls-1" data-name="Path 149" transform="translate(-3.084 -9.484)"/>
        <path id="prefix__Path_150" d="M109.02 233.3a4.623 4.623 0 0 1 1.11.185 8.127 8.127 0 0 1 .925.555 1.914 1.914 0 0 1 .555.925 4.623 4.623 0 0 1 .185 1.11v11.1a4.625 4.625 0 0 1-.185 1.11 8.132 8.132 0 0 1-.555.925 1.914 1.914 0 0 1-.925.555 2.349 2.349 0 0 1-1.11.185h-8.406a4.623 4.623 0 0 1-1.11-.185 8.126 8.126 0 0 1-.925-.555 1.914 1.914 0 0 1-.555-.925 2.349 2.349 0 0 1-.185-1.11v-11.1a4.624 4.624 0 0 1 .185-1.11 3.079 3.079 0 0 1 .555-.925 1.914 1.914 0 0 1 .925-.555 2.349 2.349 0 0 1 1.11-.185zm-1.48 4.069h-5.632v8.6h5.632z" class="prefix__cls-1" data-name="Path 150" transform="translate(-4.43 -9.479)"/>
        <path id="prefix__Path_151" d="M131.541 249.669a.176.176 0 0 1 0 .277c-.092.092-.092.092-.277.092h-3.792a.555.555 0 0 1-.37-.092l-.277-.277-2.5-4.531c0-.092-.092-.092-.185-.092h-2.867c-.092 0-.092 0-.092.092v4.439a.435.435 0 0 1-.462.462h-3.329a.435.435 0 0 1-.462-.462v-15.815a.435.435 0 0 1 .462-.462h10.82a4.622 4.622 0 0 1 1.11.185 8.129 8.129 0 0 1 .925.555 1.914 1.914 0 0 1 .555.925 2.349 2.349 0 0 1 .185 1.11v6.279a2.775 2.775 0 0 1-.555 1.665 3.024 3.024 0 0 1-1.415 1.026h-.092c-.092 0-.092.092-.092.185v.092zm-4.716-12.475h-5.734v4.06h5.734z" class="prefix__cls-1" data-name="Path 151" transform="translate(-5.866 -9.479)"/>
        <path id="prefix__Path_152" d="M156.127 245.954a.324.324 0 0 1 .37.37v3.144c0 .092 0 .277-.092.277a.342.342 0 0 1-.277.092h-10.266a.435.435 0 0 1-.462-.462v-15.813a.435.435 0 0 1 .462-.462h3.329a.435.435 0 0 1 .462.462V245.3a.324.324 0 0 0 .37.37h6.1z" class="prefix__cls-1" data-name="Path 152" transform="translate(-8.008 -9.464)"/>
        <path id="prefix__Path_153" d="M172.688 233.455a.342.342 0 0 1 .092.277v3.052a.324.324 0 0 1-.37.37h-7.944c-.092 0-.092 0-.092.092v2.589c0 .092 0 .092.092.092h6.834a.318.318 0 0 1 .37.37v2.4c0 .092 0 .277-.092.277a.342.342 0 0 1-.277.093h-6.834c-.092 0-.092 0-.092.092v2.589c0 .092 0 .092.092.092h7.944c.092 0 .277 0 .277.092a.342.342 0 0 1 .092.277v2.959c0 .092 0 .277-.092.277a.342.342 0 0 1-.277.092h-11.829a.435.435 0 0 1-.462-.462v-15.8c0-.092 0-.277.092-.277a.342.342 0 0 1 .277-.092h11.828a1.748 1.748 0 0 0 .37.555z" class="prefix__cls-1" data-name="Path 153" transform="translate(-9.115 -9.449)"/>
        <path id="prefix__Path_154" d="M189.2 233.3a4.623 4.623 0 0 1 1.11.185 8.129 8.129 0 0 1 .925.555 1.914 1.914 0 0 1 .555.925 4.625 4.625 0 0 1 .185 1.11v13.493c0 .092 0 .277-.092.277a.342.342 0 0 1-.277.092h-3.431c-.092 0-.277 0-.277-.092a.342.342 0 0 1-.092-.277v-4.254c0-.092 0-.277-.092-.277a.342.342 0 0 0-.277-.092h-4.809c-.092 0-.277 0-.277.092a.342.342 0 0 0-.092.277v4.254a.435.435 0 0 1-.462.462h-3.329a.435.435 0 0 1-.462-.462v-13.494a4.623 4.623 0 0 1 .185-1.11 8.123 8.123 0 0 1 .555-.925 1.914 1.914 0 0 1 .925-.555 2.349 2.349 0 0 1 1.11-.185zm-1.48 7.944v-4.152h-5.641v4.152z" class="prefix__cls-1" data-name="Path 154" transform="translate(-10.46 -9.479)"/>
        <path id="prefix__Path_155" d="M211.071 241.074a.324.324 0 0 1 .092.277v5.909a4.623 4.623 0 0 1-.185 1.11 8.127 8.127 0 0 1-.555.925 1.914 1.914 0 0 1-.925.555 2.349 2.349 0 0 1-1.11.185h-8.415a4.623 4.623 0 0 1-1.11-.185 8.124 8.124 0 0 1-.925-.555 1.914 1.914 0 0 1-.555-.925 2.349 2.349 0 0 1-.185-1.11v-11.1a4.624 4.624 0 0 1 .185-1.11 3.08 3.08 0 0 1 .555-.925 1.914 1.914 0 0 1 .925-.555 2.348 2.348 0 0 1 1.11-.185h9.9c.092 0 .277 0 .277.092a.342.342 0 0 1 .092.277v3.146c0 .092 0 .277-.092.277a.342.342 0 0 1-.277.092h-7.953c-.092 0-.277 0-.277.092a.342.342 0 0 0-.092.277v7.762a.324.324 0 0 0 .37.37h4.716a.324.324 0 0 0 .37-.37v-4.162c0-.092 0-.277.092-.277a.361.361 0 0 1 .277-.083h3.324a.638.638 0 0 1 .371.196z" class="prefix__cls-1" data-name="Path 155" transform="translate(-11.904 -9.486)"/>
        <path id="prefix__Path_156" d="M230.062 233.485a.342.342 0 0 1 .093.277v13.493a4.623 4.623 0 0 1-.185 1.11 8.128 8.128 0 0 1-.555.925 1.914 1.914 0 0 1-.925.555 2.349 2.349 0 0 1-1.11.185h-8.406a4.623 4.623 0 0 1-1.11-.185 8.126 8.126 0 0 1-.925-.555 1.914 1.914 0 0 1-.555-.925 2.349 2.349 0 0 1-.185-1.11v-13.493a.435.435 0 0 1 .462-.462h3.329a.435.435 0 0 1 .462.462V245.5a.324.324 0 0 0 .37.37h4.707a.324.324 0 0 0 .37-.37v-11.738c0-.092 0-.277.092-.277a.342.342 0 0 1 .277-.092h3.332a.37.37 0 0 1 .462.092z" class="prefix__cls-1" data-name="Path 156" transform="translate(-13.333 -9.479)"/>
        <path id="prefix__Path_157" d="M248.068 233.455a.342.342 0 0 1 .092.277v3.052a.324.324 0 0 1-.37.37h-7.953c-.092 0-.092 0-.092.092v2.589c0 .092 0 .092.092.092h6.843a.318.318 0 0 1 .37.37v2.4c0 .092 0 .277-.092.277a.342.342 0 0 1-.277.093h-6.843c-.092 0-.092 0-.092.092v2.589c0 .092 0 .092.092.092h7.953c.092 0 .277 0 .277.092a.342.342 0 0 1 .093.277v2.959c0 .092 0 .277-.092.277a.342.342 0 0 1-.277.092h-11.83a.435.435 0 0 1-.462-.462v-15.8c0-.092 0-.277.092-.277a.342.342 0 0 1 .277-.092h11.837a1.748 1.748 0 0 0 .362.549z" class="prefix__cls-1" data-name="Path 157" transform="translate(-14.785 -9.449)"/>
        <path id="prefix__Path_158" d="M275.689 233.292c.092 0 .277 0 .277.092a.342.342 0 0 1 .092.277v15.8c0 .092 0 .277-.092.277a.342.342 0 0 1-.277.093h-3.329c-.092 0-.277 0-.277-.092a.342.342 0 0 1-.092-.277v-5.549a.324.324 0 0 0-.37-.37H266.9c-.092 0-.277 0-.277.092a.342.342 0 0 0-.092.277v5.549a.435.435 0 0 1-.462.462h-3.329a.435.435 0 0 1-.462-.462v-15.8a.435.435 0 0 1 .462-.462h3.329a.435.435 0 0 1 .462.462v5.364a.435.435 0 0 0 .462.462h4.716a.324.324 0 0 0 .37-.37v-5.364c0-.092 0-.277.092-.277a.342.342 0 0 1 .277-.092h3.237z" class="prefix__cls-1" data-name="Path 158" transform="translate(-16.8 -9.472)"/>
        <path id="prefix__Path_159" d="M292.576 233.3a4.621 4.621 0 0 1 1.11.185 8.125 8.125 0 0 1 .925.555 1.914 1.914 0 0 1 .555.925 4.625 4.625 0 0 1 .185 1.11v13.493c0 .092 0 .277-.092.277a.342.342 0 0 1-.277.092h-3.329c-.092 0-.277 0-.277-.092a.342.342 0 0 1-.092-.277v-4.254c0-.092 0-.277-.092-.277a.342.342 0 0 0-.277-.092h-4.716c-.092 0-.277 0-.277.092a.342.342 0 0 0-.092.277v4.254a.435.435 0 0 1-.462.462h-3.32a.435.435 0 0 1-.462-.462v-13.494a4.229 4.229 0 0 1 .185-1.11 6.974 6.974 0 0 1 .555-.925 1.85 1.85 0 0 1 .925-.555 2.293 2.293 0 0 1 1.1-.185zm-1.387 7.944v-4.152h-5.641v4.152z" class="prefix__cls-1" data-name="Path 159" transform="translate(-18.252 -9.479)"/>
        <path id="prefix__Path_160" d="M304.816 237.438a.342.342 0 0 0-.092.277v7.759a.324.324 0 0 0 .37.37h7.666c.092 0 .277 0 .277.092a.342.342 0 0 1 .092.277v3.144c0 .092 0 .277-.092.277a.342.342 0 0 1-.277.092h-9.516a4.624 4.624 0 0 1-1.11-.185 8.127 8.127 0 0 1-.925-.555 1.915 1.915 0 0 1-.555-.925 2.349 2.349 0 0 1-.185-1.11v-11.177a4.626 4.626 0 0 1 .185-1.11 8.13 8.13 0 0 1 .555-.925 1.914 1.914 0 0 1 .925-.555 2.349 2.349 0 0 1 1.11-.185h9.516c.092 0 .277 0 .277.092a.342.342 0 0 1 .092.277v3.144c0 .092 0 .277-.092.277a.342.342 0 0 1-.277.092h-7.666c-.094.465-.186.557-.278.557z" class="prefix__cls-1" data-name="Path 160" transform="translate(-19.672 -9.456)"/>
        <path id="prefix__Path_161" d="M327.9 240.336c-.092.092-.092.092 0 .176l5.549 9.155a.176.176 0 0 1 0 .277c-.092.092-.092.092-.277.092h-3.982a.555.555 0 0 1-.37-.092l-.277-.277-3.607-6.473c-.092-.092-.092-.092-.092 0l-1.944 2.126a.481.481 0 0 0-.185.37.832.832 0 0 0-.092.462v3.523a.435.435 0 0 1-.462.462h-3.2a.435.435 0 0 1-.462-.462v-15.813a.435.435 0 0 1 .462-.462h3.329a.435.435 0 0 1 .462.462v7.112l6.2-7.2a1.276 1.276 0 0 1 .37-.277.7.7 0 0 1 .37-.092h3.977c.092 0 .185 0 .185.092a.342.342 0 0 1-.092.277z" class="prefix__cls-1" data-name="Path 161" transform="translate(-21.029 -9.487)"/>
        <rect id="prefix__Rectangle_71" width="4.254" height="16.729" fill="#232122" data-name="Rectangle 71" rx=".5" transform="translate(315.467 223.821)"/>
        <path id="prefix__Path_162" d="M359.015 233.583a8.132 8.132 0 0 1 .925.555 1.914 1.914 0 0 1 .555.925 2.349 2.349 0 0 1 .185 1.11v13.5c0 .092 0 .277-.092.277a.342.342 0 0 1-.277.092h-3.331a.324.324 0 0 1-.37-.37v-11.743a.324.324 0 0 0-.37-.37h-4.716c-.092 0-.277 0-.277.092s-.092.185-.092.277v11.745a.435.435 0 0 1-.462.462h-3.329a.435.435 0 0 1-.462-.462V233.86a.435.435 0 0 1 .462-.462h10.82a1 1 0 0 1 .832.185z" class="prefix__cls-1" data-name="Path 162" transform="translate(-23.165 -9.485)"/>
        <path id="prefix__Path_163" d="M379.712 241.074a.324.324 0 0 1 .092.277v5.909a4.623 4.623 0 0 1-.185 1.11 8.132 8.132 0 0 1-.555.925 1.914 1.914 0 0 1-.925.555 2.349 2.349 0 0 1-1.11.185h-8.415a4.624 4.624 0 0 1-1.1-.185 8.127 8.127 0 0 1-.925-.555 1.914 1.914 0 0 1-.555-.925 2.349 2.349 0 0 1-.185-1.11v-11.1a4.624 4.624 0 0 1 .185-1.11 3.08 3.08 0 0 1 .555-.925 1.914 1.914 0 0 1 .925-.555 2.331 2.331 0 0 1 1.1-.185h9.9c.092 0 .277 0 .277.092a.342.342 0 0 1 .092.277v3.146c0 .092 0 .277-.092.277a.342.342 0 0 1-.277.092h-7.953c-.092 0-.277 0-.277.092a.342.342 0 0 0-.092.277v7.762a.324.324 0 0 0 .37.37h4.679a.324.324 0 0 0 .37-.37v-4.162c0-.092 0-.277.092-.277a.361.361 0 0 1 .277-.083h3.32a.453.453 0 0 1 .407.194z" class="prefix__cls-1" data-name="Path 163" transform="translate(-24.59 -9.486)"/>
        <path id="prefix__Path_164" fill="#e42814" fill-rule="evenodd" d="M149.044 118.118a19.661 19.661 0 0 0-3.792-5.549 17.922 17.922 0 0 0-5.549-3.792 19.328 19.328 0 0 0-6.843-1.48H41.918a2.663 2.663 0 0 0-2.959 2.959v102.375c0 1.942.925 2.867 2.867 2.867h20.8c1.942 0 2.867-.925 2.867-2.867v-79.716H82.4v79.716a2.839 2.839 0 0 0 2.867 2.867h19.041a2.515 2.515 0 0 0 1.942-.832 3.043 3.043 0 0 0 .74-2.035v-79.716h16.923v79.716a3.043 3.043 0 0 0 .74 2.035 2.386 2.386 0 0 0 1.942.832h20.983a2.839 2.839 0 0 0 2.867-2.867v-87.642a17.071 17.071 0 0 0-1.406-6.871z" data-name="Path 164"/>
        <path id="prefix__Path_165" fill="#004698" fill-rule="evenodd" d="M254.324 190.087a2.58 2.58 0 0 0-2.035-.832v.092h-43.723a2.858 2.858 0 0 1-2.127-.74 2.5 2.5 0 0 1-.925-2.035V110.4c0-1.942-1.017-2.959-3.052-2.959h-22c-2.035 0-3.052 1.017-3.052 2.959v102.243c0 1.942 1.017 2.959 3.052 2.959h71.828a2.719 2.719 0 0 0 2.035-.832 3.089 3.089 0 0 0 .832-2.127v-20.429a2.932 2.932 0 0 0-.833-2.127z" data-name="Path 165" transform="translate(-10.416 -.012)"/>
        <path id="prefix__Path_166" fill="#f7c000" fill-rule="evenodd" d="M372.424 108.272a2.932 2.932 0 0 0-2.127-.832h-22.334a2.932 2.932 0 0 0-2.127.832 2.774 2.774 0 0 0-.925 2.127v34.67a2.848 2.848 0 0 1-2.959 2.959h-31.34c-1.785 0-2.774-.832-2.95-2.34V110.4c0-1.942-1.017-2.959-3.052-2.959h-22.278c-2.035 0-3.052 1.017-3.052 2.959v102.52c0 1.942 1.017 2.959 3.052 2.959h22.278c2.035 0 3.052-1.017 3.052-2.959v-36.436a2.969 2.969 0 0 1 .832-1.369 3.255 3.255 0 0 1 2.118-.74h31.341a2.71 2.71 0 0 1 2.959 2.774v35.77a3.015 3.015 0 0 0 .925 2.127 2.931 2.931 0 0 0 2.127.832h22.37a2.932 2.932 0 0 0 2.127-.832 2.774 2.774 0 0 0 .925-2.127V110.4a3.015 3.015 0 0 0-.962-2.127z" data-name="Path 166" transform="translate(-18.079 -.012)"/>
        <path id="prefix__Path_167" d="M74.551 300.786a2.922 2.922 0 0 1-1.137 2.451 4.947 4.947 0 0 1-3.089.879 7.805 7.805 0 0 1-3.255-.546v-1.332a9.248 9.248 0 0 0 3.3.666 3.412 3.412 0 0 0 2.081-.527 1.711 1.711 0 0 0 .7-1.461 1.85 1.85 0 0 0-.25-1.008 2.358 2.358 0 0 0-.832-.731 11.1 11.1 0 0 0-1.766-.749 5.641 5.641 0 0 1-2.377-1.415 3.107 3.107 0 0 1-.712-2.118 2.617 2.617 0 0 1 1.036-2.182 4.263 4.263 0 0 1 2.774-.814 7.991 7.991 0 0 1 3.255.647l-.425 1.2a7.454 7.454 0 0 0-2.867-.62 2.774 2.774 0 0 0-1.711.472 1.572 1.572 0 0 0-.62 1.313 1.933 1.933 0 0 0 .231 1.008 2.1 2.1 0 0 0 .768.731 10.169 10.169 0 0 0 1.655.721 6.548 6.548 0 0 1 2.571 1.433 2.774 2.774 0 0 1 .666 1.979z" class="prefix__cls-6" data-name="Path 167" transform="translate(-2.116 -13.887)"/>
        <path id="prefix__Path_168" d="M81.713 304.357a3.884 3.884 0 0 1-1.591-.324 2.95 2.95 0 0 1-1.2-.99h-.1a12.022 12.022 0 0 1 .1 1.48v3.7H77.57v-12.947h1.091l.194 1.221h.037a3.135 3.135 0 0 1 1.211-1.064 3.7 3.7 0 0 1 1.581-.324 3.311 3.311 0 0 1 2.774 1.211 5.382 5.382 0 0 1 .925 3.4 5.253 5.253 0 0 1-.943 3.412 3.3 3.3 0 0 1-2.728 1.221zm-.194-8.092a2.377 2.377 0 0 0-1.979.758 3.866 3.866 0 0 0-.62 2.4v.305a4.458 4.458 0 0 0 .62 2.682 2.4 2.4 0 0 0 2.007.814 2.09 2.09 0 0 0 1.85-.925 4.476 4.476 0 0 0 .657-2.58 4.309 4.309 0 0 0-.657-2.562 2.155 2.155 0 0 0-1.877-.9z" class="prefix__cls-6" data-name="Path 168" transform="translate(-2.906 -14.128)"/>
        <path id="prefix__Path_169" d="M96.243 299.734a4.938 4.938 0 0 1-1.091 3.4 3.875 3.875 0 0 1-3.033 1.221 4 4 0 0 1-2.127-.564 3.7 3.7 0 0 1-1.424-1.609 5.549 5.549 0 0 1-.509-2.451 4.873 4.873 0 0 1 1.091-3.394 3.829 3.829 0 0 1 3.024-1.221 3.745 3.745 0 0 1 2.969 1.248 4.855 4.855 0 0 1 1.1 3.37zm-6.788 0a4.245 4.245 0 0 0 .684 2.6 2.7 2.7 0 0 0 4.023 0 4.226 4.226 0 0 0 .684-2.6 4.152 4.152 0 0 0-.684-2.58 2.774 2.774 0 0 0-4.032 0 4.236 4.236 0 0 0-.675 2.58z" class="prefix__cls-6" data-name="Path 169" transform="translate(-3.694 -14.129)"/>
        <path id="prefix__Path_170" d="M105.564 304.191v-5.761a2.377 2.377 0 0 0-.49-1.628 2.053 2.053 0 0 0-1.554-.536 2.552 2.552 0 0 0-2.053.758 3.8 3.8 0 0 0-.647 2.5v4.67h-1.35v-8.906h1.1l.213 1.221h.1a2.774 2.774 0 0 1 1.165-1.026 3.792 3.792 0 0 1 1.665-.361 3.376 3.376 0 0 1 2.423.777 3.3 3.3 0 0 1 .814 2.488v5.808z" class="prefix__cls-6" data-name="Path 170" transform="translate(-4.553 -14.129)"/>
        <path id="prefix__Path_171" d="M116.215 301.757a2.238 2.238 0 0 1-.925 1.923 4.411 4.411 0 0 1-2.6.675 5.548 5.548 0 0 1-2.774-.564v-1.248a6.6 6.6 0 0 0 1.378.509 5.549 5.549 0 0 0 1.415.185 3.265 3.265 0 0 0 1.628-.333 1.119 1.119 0 0 0 .573-1.026 1.147 1.147 0 0 0-.453-.925 7.4 7.4 0 0 0-1.757-.869 9.251 9.251 0 0 1-1.776-.814 2.4 2.4 0 0 1-.777-.777 2.164 2.164 0 0 1 .629-2.774 4.171 4.171 0 0 1 2.432-.629 6.974 6.974 0 0 1 2.774.592l-.481 1.091a6.474 6.474 0 0 0-2.432-.555 2.774 2.774 0 0 0-1.443.305.925.925 0 0 0-.49.832 1.054 1.054 0 0 0 .185.61 1.7 1.7 0 0 0 .592.472 11.642 11.642 0 0 0 1.554.666 5.734 5.734 0 0 1 2.145 1.156 2.062 2.062 0 0 1 .6 1.5z" class="prefix__cls-6" data-name="Path 171" transform="translate(-5.337 -14.127)"/>
        <path id="prefix__Path_172" d="M126.753 299.734a4.938 4.938 0 0 1-1.1 3.4 3.865 3.865 0 0 1-3.033 1.221 3.967 3.967 0 0 1-2.118-.564 3.7 3.7 0 0 1-1.433-1.609 5.66 5.66 0 0 1-.5-2.451 4.873 4.873 0 0 1 1.091-3.394 3.829 3.829 0 0 1 3.024-1.221 3.773 3.773 0 0 1 2.969 1.248 4.9 4.9 0 0 1 1.1 3.366zm-6.788 0a4.245 4.245 0 0 0 .684 2.6 2.377 2.377 0 0 0 2.007.925 2.414 2.414 0 0 0 2.016-.925 4.226 4.226 0 0 0 .684-2.6 4.152 4.152 0 0 0-.684-2.58 2.774 2.774 0 0 0-4.032 0 4.171 4.171 0 0 0-.674 2.58z" class="prefix__cls-6" data-name="Path 172" transform="translate(-5.989 -14.129)"/>
        <path id="prefix__Path_173" d="M134.041 295.12a5.254 5.254 0 0 1 1.063.1l-.185 1.248a4.466 4.466 0 0 0-.925-.12 2.377 2.377 0 0 0-1.85.879 3.163 3.163 0 0 0-.768 2.182v4.781H130v-8.906h1.11l.157 1.646h.065a4.032 4.032 0 0 1 1.193-1.341 2.682 2.682 0 0 1 1.516-.469z" class="prefix__cls-6" data-name="Path 173" transform="translate(-6.85 -14.13)"/>
        <path id="prefix__Path_174" d="M141.043 304.358a4.134 4.134 0 0 1-3.117-1.2 4.679 4.679 0 0 1-1.137-3.348 5.151 5.151 0 0 1 1.063-3.422 3.524 3.524 0 0 1 2.848-1.267 3.366 3.366 0 0 1 2.645 1.1 4.272 4.272 0 0 1 .98 2.913v.851h-6.141a3.477 3.477 0 0 0 .8 2.377 2.719 2.719 0 0 0 2.118.814 7.055 7.055 0 0 0 2.839-.6v1.2a6.215 6.215 0 0 1-1.35.444 7.4 7.4 0 0 1-1.548.138zm-.361-8.11a2.22 2.22 0 0 0-1.711.7 3.2 3.2 0 0 0-.749 1.933h4.624a2.959 2.959 0 0 0-.564-1.951 2.007 2.007 0 0 0-1.6-.684z" class="prefix__cls-6" data-name="Path 174" transform="translate(-7.36 -14.129)"/>
        <path id="prefix__Path_175" d="M153.467 302.709h-.074a3.163 3.163 0 0 1-2.774 1.359 3.31 3.31 0 0 1-2.719-1.193 5.29 5.29 0 0 1-.971-3.4 5.364 5.364 0 0 1 .971-3.422 3.292 3.292 0 0 1 2.719-1.221 3.228 3.228 0 0 1 2.774 1.322h.074l-.055-.647v-4.247h1.35v12.64h-1.1zm-2.7.231a2.441 2.441 0 0 0 2.007-.758 3.773 3.773 0 0 0 .62-2.423v-.287a4.5 4.5 0 0 0-.629-2.7 2.4 2.4 0 0 0-2.016-.814 2.072 2.072 0 0 0-1.85.925 4.624 4.624 0 0 0-.629 2.608 4.355 4.355 0 0 0 .629 2.58 2.127 2.127 0 0 0 1.85.869z" class="prefix__cls-6" data-name="Path 175" transform="translate(-8.122 -13.839)"/>
        <path id="prefix__Path_176" d="M163.35 292.079h3.375a6.335 6.335 0 0 1 3.422.712 2.488 2.488 0 0 1 1.054 2.229 2.571 2.571 0 0 1-.592 1.748 2.848 2.848 0 0 1-1.711.925v.083q2.7.458 2.7 2.848a3.061 3.061 0 0 1-1.073 2.478 4.559 4.559 0 0 1-3.015.925h-4.143zm1.378 5.086H167a3.7 3.7 0 0 0 2.108-.453 1.785 1.785 0 0 0 .638-1.554 1.554 1.554 0 0 0-.712-1.443 4.429 4.429 0 0 0-2.275-.444h-2.035zm0 1.174v4.448h2.478a3.5 3.5 0 0 0 2.173-.564 2.044 2.044 0 0 0 .721-1.739 1.85 1.85 0 0 0-.74-1.628 4.023 4.023 0 0 0-2.266-.518z" class="prefix__cls-6" data-name="Path 176" transform="translate(-9.358 -13.899)"/>
        <path id="prefix__Path_177" d="M173.26 295.3h1.452l1.951 5.077a19.623 19.623 0 0 1 .8 2.515h.065c.065-.277.213-.749.444-1.424s.925-2.719 2.2-6.168h1.452l-3.829 10.173a5.012 5.012 0 0 1-1.332 2.127 2.774 2.774 0 0 1-1.85.638 5.354 5.354 0 0 1-1.212-.139v-1.082a4.708 4.708 0 0 0 1 .092 2.062 2.062 0 0 0 1.979-1.554l.5-1.276z" class="prefix__cls-6" data-name="Path 177" transform="translate(-10.104 -14.143)"/>
        <path id="prefix__Path_178" d="M334.667 295.559v-2.284h-2.848v-3.551h-.083l-2.673.814h-.055v2.691h-4.2v-1.507a2.368 2.368 0 0 1 .462-1.591 1.618 1.618 0 0 1 1.3-.527 2.9 2.9 0 0 1 1.23.287l.1.046v-2.4h-.055a4.568 4.568 0 0 0-1.572-.213 4.513 4.513 0 0 0-2.229.536 3.7 3.7 0 0 0-1.535 1.507 4.475 4.475 0 0 0-.546 2.229v1.646H320v2.284h1.979v9.618h2.83v-9.618h4.2v6.113c0 2.525 1.193 3.8 3.533 3.8a5.549 5.549 0 0 0 1.211-.129 3.392 3.392 0 0 0 .869-.277h.046v-2.284l-.111.083a3.042 3.042 0 0 1-.573.25 2.081 2.081 0 0 1-.555.093 1.59 1.59 0 0 1-1.211-.435 2.414 2.414 0 0 1-.388-1.535v-5.623h2.848z" class="prefix__cls-7" data-name="Path 178" transform="translate(-21.142 -13.543)"/>
        <path id="prefix__Path_179" d="M317.132 295.086a5.77 5.77 0 0 0-4.365-1.637 6.279 6.279 0 0 0-4.624 1.711 6.409 6.409 0 0 0-1.674 4.67 6.029 6.029 0 0 0 1.637 4.457 5.882 5.882 0 0 0 4.4 1.692 6.02 6.02 0 0 0 4.55-1.739 6.473 6.473 0 0 0 1.674-4.624 6.187 6.187 0 0 0-1.6-4.531zM315 302.614a2.774 2.774 0 0 1-2.349 1 3.07 3.07 0 0 1-2.423-1.017 4.346 4.346 0 0 1-.86-2.867 4.568 4.568 0 0 1 .86-2.941 3 3 0 0 1 2.386-1.026 2.913 2.913 0 0 1 2.33.99 4.365 4.365 0 0 1 .851 2.913 4.679 4.679 0 0 1-.8 2.95z" class="prefix__cls-7" data-name="Path 179" transform="translate(-20.123 -14.003)"/>
        <path id="prefix__Path_180" d="M301.137 293.45a5.16 5.16 0 0 0-3.292 1.017 3.218 3.218 0 0 0-1.276 2.636 3.7 3.7 0 0 0 .277 1.48 2.886 2.886 0 0 0 .851 1.11 7.27 7.27 0 0 0 1.729.925 11.307 11.307 0 0 1 1.424.675 1.85 1.85 0 0 1 .629.518 1.193 1.193 0 0 1 .176.675c0 .8-.6 1.193-1.85 1.193a4.967 4.967 0 0 1-1.554-.287 5.937 5.937 0 0 1-1.581-.8l-.12-.083v2.774a6.954 6.954 0 0 0 1.507.462 7.659 7.659 0 0 0 1.6.185 5.447 5.447 0 0 0 3.477-1.026 3.3 3.3 0 0 0 1.285-2.71 3.135 3.135 0 0 0-.684-2.044 5.937 5.937 0 0 0-2.367-1.507 6.047 6.047 0 0 1-1.683-.869 1.221 1.221 0 0 1-.342-.925 1.073 1.073 0 0 1 .425-.851 1.923 1.923 0 0 1 1.211-.351 4.929 4.929 0 0 1 1.443.222 5.1 5.1 0 0 1 1.258.583l.111.083v-2.571a5.93 5.93 0 0 0-1.285-.361 7.726 7.726 0 0 0-1.378-.139" class="prefix__cls-7" data-name="Path 180" transform="translate(-19.378 -14.004)"/>
        <path id="prefix__Path_181" d="M292.561 295.086a5.77 5.77 0 0 0-4.365-1.637 6.223 6.223 0 0 0-4.624 1.711 6.409 6.409 0 0 0-1.683 4.67 6.076 6.076 0 0 0 1.637 4.457 5.909 5.909 0 0 0 4.383 1.646 6.011 6.011 0 0 0 4.55-1.739 6.4 6.4 0 0 0 1.674-4.624 6.224 6.224 0 0 0-1.572-4.484zm-2.127 7.528a2.839 2.839 0 0 1-2.358 1 3.043 3.043 0 0 1-2.414-1.017 4.282 4.282 0 0 1-.869-2.867 4.513 4.513 0 0 1 .869-2.941 2.959 2.959 0 0 1 2.386-1.026 2.9 2.9 0 0 1 2.321.99 4.31 4.31 0 0 1 .851 2.913 4.679 4.679 0 0 1-.786 2.95z" class="prefix__cls-7" data-name="Path 181" transform="translate(-18.274 -14.003)"/>
        <path id="prefix__Path_182" d="M277 295.82v-2.053h-2.77v11.9H277v-6.085a4.2 4.2 0 0 1 .7-2.534 2.118 2.118 0 0 1 1.85-.925 3.615 3.615 0 0 1 .842.12 2.192 2.192 0 0 1 .657.268l.12.083v-2.83h-.046a3.237 3.237 0 0 0-2.969.509 3.829 3.829 0 0 0-1.082 1.591z" class="prefix__cls-7" data-name="Path 182" transform="translate(-17.699 -14.016)"/>
        <path id="prefix__Path_183" d="M268.257 293.45a6.88 6.88 0 0 0-3.412.823 5.548 5.548 0 0 0-2.247 2.312 7.4 7.4 0 0 0-.768 3.422 6.289 6.289 0 0 0 .749 3.07 5.373 5.373 0 0 0 2.1 2.118 6.205 6.205 0 0 0 3.07.74 6.557 6.557 0 0 0 3.375-.8h.046v-2.58l-.12.074a5.262 5.262 0 0 1-1.378.712 4.05 4.05 0 0 1-1.332.268 3.468 3.468 0 0 1-2.626-1.027 4 4 0 0 1-.925-2.83 4.078 4.078 0 0 1 1.008-2.9 3.431 3.431 0 0 1 2.626-1.091 4.569 4.569 0 0 1 2.673.925l.12.083v-2.7a4.466 4.466 0 0 0-1.3-.435 7.4 7.4 0 0 0-1.581-.166" class="prefix__cls-7" data-name="Path 183" transform="translate(-16.766 -14.004)"/>
        <path id="prefix__Rectangle_72" d="M0 0H2.802V11.911H0z" class="prefix__cls-7" data-name="Rectangle 72" transform="translate(240.329 279.733)"/>
        <path id="prefix__Path_184" d="M258.112 288.27a1.683 1.683 0 0 0-1.193.462 1.517 1.517 0 0 0-.5 1.174 1.47 1.47 0 0 0 .5 1.147 1.683 1.683 0 0 0 1.193.453 1.748 1.748 0 0 0 1.211-.453 1.489 1.489 0 0 0 .49-1.147 1.581 1.581 0 0 0-.481-1.165 1.665 1.665 0 0 0-1.221-.472" class="prefix__cls-7" data-name="Path 184" transform="translate(-16.359 -13.614)"/>
        <path id="prefix__Path_185" d="M249.469 292.5v12.79h2.848v-16.63h-3.949l-5.031 12.346-4.883-12.346h-4.124v16.628h2.691v-12.8h.092l5.16 12.8h2.027l5.077-12.79z" class="prefix__cls-7" data-name="Path 185" transform="translate(-14.698 -13.644)"/>
        <path id="prefix__Rectangle_73" fill="#ff3e00" d="M0 0H13.178V13.178H0z" data-name="Rectangle 73" transform="translate(183.585 269.468)"/>
        <path id="prefix__Rectangle_74" fill="#6abc00" d="M0 0H13.178V13.178H0z" data-name="Rectangle 74" transform="translate(198.141 269.468)"/>
        <path id="prefix__Rectangle_75" fill="#00a7f2" d="M0 0H13.178V13.187H0z" data-name="Rectangle 75" transform="translate(183.585 284.024)"/>
        <path id="prefix__Rectangle_76" fill="#ffb700" d="M0 0H13.178V13.187H0z" data-name="Rectangle 76" transform="translate(198.141 284.024)"/>
    </g>
</svg>
