<svg xmlns="http://www.w3.org/2000/svg" width="141.564" height="247.827" viewBox="0 0 141.564 247.827">
  <g id="Yellow" transform="translate(0.11)">
    <g id="Trust_Badge_Yellow_" data-name="Trust Badge (Yellow)" transform="translate(-0.11)">
      <path id="Background_Bottom_" data-name="Background (Bottom)" d="M21.78,265.347c0-.937,2-1.347,3.339-1.347H144.8c1.34,0,1.614.411,1.614,1.347V392.953a2.676,2.676,0,0,1-1.751,2.493L87.417,416.41a7.064,7.064,0,0,1-4.222,0l-58.85-20.96c-1.189-.425-2.565-1.545-2.565-2.482Z" transform="translate(-13.895 -168.906)" fill="#f8b92a"/>
      <g id="Official_Plate" data-name="Official Plate" transform="translate(0.086 75.377)">
        <path id="Shadow" d="M150.1,364.666V350.02H34.24Z" transform="translate(-21.953 -299.318)" fill="#ba8b20"/>
        <path id="Plate_Background" data-name="Plate Background" d="M145.874,266.752s-57.55,19.022-130.164,0V229.73c67,17.438,130.164,0,130.164,0Z" transform="translate(-10.098 -222.357)" fill="#fff"/>
        <path id="Plate_Border" data-name="Plate Border" d="M135.906,216.633v37.022s-25.582,8.461-64.142,8.461a260.6,260.6,0,0,1-66.022-8.461V216.633a253.385,253.385,0,0,0,63.519,7.748c38.567,0,66.638-7.748,66.638-7.748m5.612-7.373-7.1,1.963c-.3.083-27.905,7.546-65.154,7.546a247.114,247.114,0,0,1-62.1-7.564L.13,209.372V258l4.193,1.1a266.252,266.252,0,0,0,67.438,8.645c39.017,0,64.837-8.382,65.917-8.739l3.851-1.272V209.26Z" transform="translate(-0.13 -209.26)" fill="#f8b92a"/>
        <g id="Official" transform="translate(12.293 19.991)">
          <path id="Path_89" data-name="Path 89" d="M49.093,266.614a2.832,2.832,0,0,1,1.081.436,2.947,2.947,0,0,1,1.232,1.758,2.694,2.694,0,0,1,.036,1.138q-.987,5.619-1.985,11.242a2.547,2.547,0,0,1-.443,1.052,3.014,3.014,0,0,1-.8.8,2.881,2.881,0,0,1-1.081.425,3.277,3.277,0,0,1-1.228,0q-4.618-.879-9.218-1.92a3.347,3.347,0,0,1-1.12-.49,3.113,3.113,0,0,1-.828-.825,2.81,2.81,0,0,1-.432-1.045,2.716,2.716,0,0,1,.029-1.142q1.333-5.547,2.666-11.1a2.846,2.846,0,0,1,.479-1.019,2.752,2.752,0,0,1,.818-.738,3.284,3.284,0,0,1,1.048-.382,2.828,2.828,0,0,1,1.153.025Q44.781,265.8,49.093,266.614Zm-2.262,3.8q-2.907-.569-5.8-1.207l-1.9,8.6q3,.666,6.012,1.254Q45.988,274.747,46.831,270.418Z" transform="translate(-34.259 -264.758)" fill="#f8b92a"/>
          <path id="Path_90" data-name="Path 90" d="M102.262,275.122a.468.468,0,0,1,.1.342l-.335,3.217a.447.447,0,0,1-.173.313.457.457,0,0,1-.36.1q-4.182-.447-8.357-1.034c-.083,0-.13,0-.137.079q-.187,1.318-.36,2.644a.108.108,0,0,0,.108.137q3.2.454,6.408.821a.425.425,0,0,1,.313.169.468.468,0,0,1,.09.36c-.115,1.012-.227,2.028-.36,3.04a.465.465,0,0,1-.166.313.44.44,0,0,1-.36.1q-3.242-.36-6.513-.832a.108.108,0,0,0-.144.1q-.389,2.73-.774,5.457c-.043.31-.231.439-.562.393-1.207-.177-2.413-.36-3.6-.548-.331-.054-.472-.231-.425-.54q1.286-8,2.565-16.008a.418.418,0,0,1,.54-.389q6.073.962,12.175,1.61A.472.472,0,0,1,102.262,275.122Z" transform="translate(-67.776 -270.248)" fill="#f8b92a"/>
          <path id="Path_91" data-name="Path 91" d="M147.43,279.71a.443.443,0,0,1,.122.335c-.04,1.081-.083,2.161-.122,3.242a.461.461,0,0,1-.151.324.483.483,0,0,1-.36.122q-4.2-.173-8.393-.486c-.086,0-.13.022-.133.086-.068.89-.133,1.776-.2,2.662a.112.112,0,0,0,.115.133q3.22.245,6.44.4a.436.436,0,0,1,.324.151.461.461,0,0,1,.112.335q-.076,1.527-.144,3.058a.468.468,0,0,1-.144.324.439.439,0,0,1-.342.119q-3.274-.162-6.545-.407a.112.112,0,0,0-.137.112q-.205,2.752-.414,5.5c-.025.31-.205.45-.537.425-1.214-.094-2.424-.2-3.638-.306-.335-.032-.486-.2-.457-.512q.764-8.072,1.516-16.144a.414.414,0,0,1,.511-.421q6.124.562,12.247.814a.443.443,0,0,1,.331.137Z" transform="translate(-97.318 -273.708)" fill="#f8b92a"/>
          <path id="Path_92" data-name="Path 92" d="M183.939,298.064c0,.31-.173.465-.5.461-1.217-.018-2.431-.04-3.649-.072-.335,0-.5-.169-.486-.479l.461-16.209a.418.418,0,0,1,.483-.454q1.7.05,3.4.068a.411.411,0,0,1,.461.472Q184.029,289.955,183.939,298.064Z" transform="translate(-127.055 -275.345)" fill="#f8b92a"/>
          <path id="Path_93" data-name="Path 93" d="M207.865,285.066a.4.4,0,0,0-.13.321q.09,3.962.187,7.925a.4.4,0,0,0,.148.317.522.522,0,0,0,.36.112q4.171-.1,8.339-.36a.483.483,0,0,1,.36.112.454.454,0,0,1,.166.324l.194,3.224a.447.447,0,0,1-.126.342.533.533,0,0,1-.36.155q-2.756.158-5.518.263-2.269.079-4.542.126h-.475a3.219,3.219,0,0,1-1.207-.2,3.025,3.025,0,0,1-.994-.6,2.738,2.738,0,0,1-.663-.915,2.669,2.669,0,0,1-.245-1.113v-2.2q0-2.856-.029-5.709v-3.476a2.86,2.86,0,0,1,.22-1.117,2.708,2.708,0,0,1,.612-.911,3.241,3.241,0,0,1,.922-.623,2.806,2.806,0,0,1,1.117-.249h.447q4.683-.094,9.391-.36a.468.468,0,0,1,.5.436l.195,3.242a.447.447,0,0,1-.119.339.472.472,0,0,1-.331.155q-4.02.23-8.047.335A.487.487,0,0,0,207.865,285.066Z" transform="translate(-142.43 -274.796)" fill="#f8b92a"/>
          <path id="Path_94" data-name="Path 94" d="M256.649,295.242c.029.31-.122.479-.457.508-1.21.115-2.424.22-3.634.313-.335.025-.515-.115-.537-.425q-.623-8.083-1.239-16.166a.411.411,0,0,1,.432-.5q1.7-.133,3.393-.292a.414.414,0,0,1,.512.418Q255.9,287.169,256.649,295.242Z" transform="translate(-172.783 -273.657)" fill="#f8b92a"/>
          <path id="Path_95" data-name="Path 95" d="M285.419,273.072a2.8,2.8,0,0,1,1.149.047,3.1,3.1,0,0,1,1.009.454,3.009,3.009,0,0,1,.764.789,2.7,2.7,0,0,1,.425,1.059q1.171,6.808,2.349,13.612a.421.421,0,0,1-.086.36.5.5,0,0,1-.331.194q-1.8.306-3.634.594a.5.5,0,0,1-.36-.079.436.436,0,0,1-.195-.3q-.335-2.161-.666-4.322a.465.465,0,0,0-.18-.31.44.44,0,0,0-.36-.079q-2.521.382-5.086.72a.486.486,0,0,0-.328.176.436.436,0,0,0-.1.36l.555,4.326c.04.306-.1.483-.439.526-1.207.151-2.417.3-3.624.436-.335.036-.519-.1-.551-.407q-.767-6.866-1.527-13.731a2.837,2.837,0,0,1,.1-1.131,2.687,2.687,0,0,1,.515-.973,3.293,3.293,0,0,1,.85-.72,2.817,2.817,0,0,1,1.081-.36Q281.1,273.767,285.419,273.072Zm-.223,8.285q-.331-2.129-.656-4.261-2.918.45-5.846.828.277,2.14.555,4.276,2.979-.382,5.947-.836Z" transform="translate(-187.759 -270.053)" fill="#f8b92a"/>
          <path id="Path_96" data-name="Path 96" d="M338.064,278.832a.457.457,0,0,1,.566.36c.252,1.048.5,2.093.753,3.141a.447.447,0,0,1-.05.36.457.457,0,0,1-.306.212q-5.587,1.329-11.22,2.41c-.331.061-.526-.058-.584-.36q-1.509-7.964-3.019-15.932a.414.414,0,0,1,.378-.544c1.117-.216,2.237-.436,3.353-.666a.411.411,0,0,1,.555.36l2.471,11.793a.393.393,0,0,0,.205.285.522.522,0,0,0,.36.047Q334.8,279.613,338.064,278.832Z" transform="translate(-219.75 -266.696)" fill="#f8b92a"/>
        </g>
      </g>
      <g id="Background_Top_" data-name="Background (Top)">
        <path id="Path_97" data-name="Path 97" d="M141.454,75.369l-7.168-3.555L134.207,0H6.334l.133,72.4L-.11,75.643l6.577,4.571v.112h.148l.4.281.029-.281H9.266s61.386,18.432,124.083.281h.937v-.281h.043Z" transform="translate(0.11)" fill="#f8b92a"/>
      </g>
      <g id="_2019_Season" data-name="2019 Season" transform="translate(20.448 157.77)">
        <g id="Season" transform="translate(0 37.457)">
          <path id="Path_98" data-name="Path 98" d="M67.925,548.991a2.706,2.706,0,0,1,.9.609,3.115,3.115,0,0,1,.605.9,2.59,2.59,0,0,1,.231,1.081v4.571a2.68,2.68,0,0,1-.231,1.106,3.073,3.073,0,0,1-.605.911,2.656,2.656,0,0,1-.9.609,2.808,2.808,0,0,1-1.106.22h-9.7a.407.407,0,0,1-.461-.436v-2.943a.454.454,0,0,1,.461-.461H65.4a.465.465,0,0,0,.328-.122.414.414,0,0,0,.133-.317V552.7a.457.457,0,0,0-.133-.328.443.443,0,0,0-.328-.133H59.5a2.831,2.831,0,0,1-2.622-1.725,2.727,2.727,0,0,1-.22-1.081v-4.6a2.806,2.806,0,0,1,.22-1.106,2.644,2.644,0,0,1,.605-.9,3.19,3.19,0,0,1,.911-.605,2.7,2.7,0,0,1,1.106-.231h9.167a.407.407,0,0,1,.461.461v2.99a.407.407,0,0,1-.133.317.476.476,0,0,1-.328.119H60.912a.411.411,0,0,0-.317.137.472.472,0,0,0-.122.328v1.967a.472.472,0,0,0,.122.328.41.41,0,0,0,.317.137h5.907A2.882,2.882,0,0,1,67.925,548.991Z" transform="translate(-56.656 -541.988)" fill="#fff"/>
          <path id="Path_99" data-name="Path 99" d="M115.873,542.133a.45.45,0,0,1,.133.328v3.062a.422.422,0,0,1-.133.317.479.479,0,0,1-.328.122H107.4c-.083,0-.122.04-.122.119v2.651c0,.065.04.1.122.1h6.952a.407.407,0,0,1,.317.133.475.475,0,0,1,.119.328v2.435a.472.472,0,0,1-.119.328.407.407,0,0,1-.317.133H107.4a.108.108,0,0,0-.122.123v2.626a.108.108,0,0,0,.122.122h8.144a.443.443,0,0,1,.328.133.458.458,0,0,1,.133.328v3.051a.457.457,0,0,1-.133.328.443.443,0,0,1-.328.133H103.461a.407.407,0,0,1-.468-.461V542.46a.45.45,0,0,1,.133-.328.443.443,0,0,1,.328-.133h12.085A.443.443,0,0,1,115.873,542.133Z" transform="translate(-86.299 -541.995)" fill="#fff"/>
          <path id="Path_100" data-name="Path 100" d="M161.265,542a2.692,2.692,0,0,1,1.106.231,3,3,0,0,1,.9.605,2.932,2.932,0,0,1,.605.9,2.694,2.694,0,0,1,.234,1.106v13.727a.446.446,0,0,1-.137.328.436.436,0,0,1-.328.133h-3.379a.454.454,0,0,1-.461-.461V554.2a.472.472,0,0,0-.122-.331.414.414,0,0,0-.317-.133h-4.794a.457.457,0,0,0-.328.133.45.45,0,0,0-.133.331v4.366a.407.407,0,0,1-.461.461h-3.357a.407.407,0,0,1-.461-.461V544.842a2.806,2.806,0,0,1,.22-1.106,2.654,2.654,0,0,1,.609-.9,3.144,3.144,0,0,1,.911-.605,2.679,2.679,0,0,1,1.106-.231Zm-1.459,8.094v-4.279h-5.713v4.279Z" transform="translate(-116.267 -541.995)" fill="#fff"/>
          <path id="Path_101" data-name="Path 101" d="M211.2,548.99a2.69,2.69,0,0,1,.9.609,3.127,3.127,0,0,1,.609.9,2.591,2.591,0,0,1,.231,1.081v4.571a2.68,2.68,0,0,1-.231,1.106,3.083,3.083,0,0,1-.609.911,2.641,2.641,0,0,1-.9.609,2.805,2.805,0,0,1-1.106.22h-9.7a.407.407,0,0,1-.461-.461v-2.943a.443.443,0,0,1,.133-.328.436.436,0,0,1,.328-.133h8.267a.468.468,0,0,0,.328-.123.414.414,0,0,0,.133-.317v-2.017a.457.457,0,0,0-.133-.328.451.451,0,0,0-.328-.133h-5.886a2.8,2.8,0,0,1-1.106-.22,2.772,2.772,0,0,1-.911-.609,2.88,2.88,0,0,1-.609-.9,2.788,2.788,0,0,1-.216-1.081v-4.575a2.882,2.882,0,0,1,.216-1.106,2.707,2.707,0,0,1,.609-.9,3.143,3.143,0,0,1,.911-.605,2.7,2.7,0,0,1,1.106-.231h9.164a.407.407,0,0,1,.465.461v2.99a.421.421,0,0,1-.133.317.479.479,0,0,1-.331.119h-7.752a.406.406,0,0,0-.317.137.458.458,0,0,0-.122.328v1.967a.458.458,0,0,0,.122.328.407.407,0,0,0,.317.137h5.907A2.88,2.88,0,0,1,211.2,548.99Z" transform="translate(-148.321 -541.987)" fill="#fff"/>
          <path id="Path_102" data-name="Path 102" d="M257.635,542a2.68,2.68,0,0,1,1.106.231,3,3,0,0,1,.9.605,2.94,2.94,0,0,1,.609.9,2.752,2.752,0,0,1,.23,1.106V556.17a2.741,2.741,0,0,1-.231,1.106,3.083,3.083,0,0,1-.609.911,2.655,2.655,0,0,1-.9.609,2.794,2.794,0,0,1-1.106.22h-8.623a2.806,2.806,0,0,1-1.106-.22,2.775,2.775,0,0,1-.911-.609,2.824,2.824,0,0,1-.825-2.017V544.842a2.882,2.882,0,0,1,.216-1.106,2.7,2.7,0,0,1,.609-.9,3.144,3.144,0,0,1,.911-.605,2.7,2.7,0,0,1,1.106-.231Zm-1.459,4.132h-5.745v8.749h5.727Z" transform="translate(-177.906 -541.995)" fill="#fff"/>
          <path id="Path_103" data-name="Path 103" d="M310.6,542.125a.45.45,0,0,1,.133.328v16.108a.457.457,0,0,1-.133.328.443.443,0,0,1-.328.133h-3.5a.764.764,0,0,1-.389-.112.749.749,0,0,1-.292-.277l-5.374-9.92v9.848a.407.407,0,0,1-.461.461H296.9a.411.411,0,0,1-.465-.461V542.453a.407.407,0,0,1,.465-.461h3.451a.8.8,0,0,1,.389.108.721.721,0,0,1,.292.281l5.4,9.942v-9.87a.45.45,0,0,1,.133-.328.443.443,0,0,1,.328-.133h3.382A.443.443,0,0,1,310.6,542.125Z" transform="translate(-210.061 -541.987)" fill="#fff"/>
        </g>
        <g id="_2020" data-name="2020" transform="translate(0.606)">
          <path id="Path_104" data-name="Path 104" d="M64.791,455.968v3.663a.688.688,0,0,0,.742.616h13.8a.685.685,0,0,1,.533.227.8.8,0,0,1,.205.555V466a.8.8,0,0,1-.205.555.684.684,0,0,1-.533.227h-20.2a.688.688,0,0,1-.778-.782V454.228a4.65,4.65,0,0,1,.36-1.848,4.881,4.881,0,0,1,1.027-1.52,4.682,4.682,0,0,1,1.542-1.027,4.8,4.8,0,0,1,1.866-.36h9.726a.767.767,0,0,0,.782-.778v-3.328a.775.775,0,0,0-.782-.778H59.989a.72.72,0,0,1-.742-.738v-5.043a.8.8,0,0,1,.205-.555.721.721,0,0,1,.537-.223H75.305a4.453,4.453,0,0,1,1.848.389,5.33,5.33,0,0,1,1.52,1.027,4.607,4.607,0,0,1,1.027,1.52,4.8,4.8,0,0,1,.36,1.869v1.149a.158.158,0,0,1,.043.122v10.482a.684.684,0,0,1-.227.533.8.8,0,0,1-.555.205H65.533a.72.72,0,0,0-.742.641Z" transform="translate(-58.339 -438.019)" fill="#fff"/>
          <path id="Path_105" data-name="Path 105" d="M147.832,438a4.575,4.575,0,0,1,1.869.389,4.82,4.82,0,0,1,2.547,2.547,4.574,4.574,0,0,1,.389,1.869v19.134a4.6,4.6,0,0,1-.389,1.869,5.179,5.179,0,0,1-1.027,1.538,4.5,4.5,0,0,1-1.52,1.027,4.743,4.743,0,0,1-1.869.36H135.484a4.738,4.738,0,0,1-4.794-4.794v-19.13a4.744,4.744,0,0,1,.36-1.87,4.5,4.5,0,0,1,1.027-1.52,5.179,5.179,0,0,1,1.538-1.027,4.6,4.6,0,0,1,1.869-.393h12.359Zm-2.161,6.981h-8.025v14.768h8.007Z" transform="translate(-104.628 -438)" fill="#fff"/>
          <path id="Path_106" data-name="Path 106" d="M209.686,455.968v3.663a.684.684,0,0,0,.72.616h13.8a.7.7,0,0,1,.537.227.793.793,0,0,1,.2.555V466a.793.793,0,0,1-.2.555.7.7,0,0,1-.537.227H204.02a.692.692,0,0,1-.782-.782V454.228a4.589,4.589,0,0,1,.36-1.848,4.762,4.762,0,0,1,1.027-1.52,4.682,4.682,0,0,1,1.538-1.027,4.808,4.808,0,0,1,1.869-.36h9.726a.742.742,0,0,0,.551-.223.753.753,0,0,0,.227-.555v-3.328a.775.775,0,0,0-.778-.778h-12.9a.72.72,0,0,1-.738-.738v-5.043a.8.8,0,0,1,.205-.555.692.692,0,0,1,.533-.223h15.316a4.426,4.426,0,0,1,1.848.389,5.28,5.28,0,0,1,1.52,1.027,4.554,4.554,0,0,1,1.027,1.52,4.805,4.805,0,0,1,.36,1.87v1.149a.159.159,0,0,1,.043.122v10.482a.684.684,0,0,1-.227.533.8.8,0,0,1-.555.205H210.424A.72.72,0,0,0,209.686,455.968Z" transform="translate(-151.04 -438.018)" fill="#fff"/>
          <path id="Path_107" data-name="Path 107" d="M292.706,438a4.569,4.569,0,0,1,1.866.389,4.819,4.819,0,0,1,2.547,2.547,4.575,4.575,0,0,1,.389,1.869v19.134a4.6,4.6,0,0,1-.389,1.869,5.18,5.18,0,0,1-1.027,1.538,4.462,4.462,0,0,1-1.52,1.027,4.74,4.74,0,0,1-1.866.36H280.344a4.831,4.831,0,0,1-3.408-1.4,4.682,4.682,0,0,1-1.027-1.538,4.834,4.834,0,0,1-.36-1.869v-19.12a4.807,4.807,0,0,1,.36-1.87,4.5,4.5,0,0,1,1.027-1.52,5.2,5.2,0,0,1,1.542-1.027,4.571,4.571,0,0,1,1.866-.389h12.362Zm-2.179,6.981H282.52v14.768h8.007Z" transform="translate(-197.309 -438)" fill="#fff"/>
        </g>
      </g>
      <path id="Path_108" data-name="Path 108" d="M72.462,142.379a2.226,2.226,0,0,1,.27.162.587.587,0,0,1,.166.274,1.44,1.44,0,0,1,.054.324V147.1c0,.029,0,.083-.029.083a.1.1,0,0,1-.083.025h-.987a.094.094,0,0,1-.108-.108v-3.577h-.774V147.1c0,.029,0,.083-.025.083a.108.108,0,0,1-.083.025h-.893c-.025,0-.079,0-.079-.025a.1.1,0,0,1-.029-.083v-3.577h-.785V147.1a.13.13,0,0,1-.137.137h-.973a.13.13,0,0,1-.137-.137v-4.639a.13.13,0,0,1,.137-.137h4.225a.339.339,0,0,1,.27.054Z" transform="translate(-43.357 -91.054)" fill="#fff" fill-rule="evenodd"/>
      <path id="Path_109" data-name="Path 109" d="M88.583,142.266a1.272,1.272,0,0,1,.324.054,2.226,2.226,0,0,1,.27.162.54.54,0,0,1,.162.27,1.271,1.271,0,0,1,.054.324v3.962c0,.025,0,.079-.025.079a.1.1,0,0,1-.083.029H88.31c-.025,0-.079,0-.079-.029a.094.094,0,0,1-.029-.079v-1.246c0-.029,0-.083-.025-.083a.108.108,0,0,0-.083-.025h-1.38c-.029,0-.083,0-.083.025a.108.108,0,0,0-.025.083v1.246a.126.126,0,0,1-.137.133h-.976a.126.126,0,0,1-.133-.133v-3.962a1.272,1.272,0,0,1,.054-.324,2.544,2.544,0,0,1,.162-.27.526.526,0,0,1,.27-.162.684.684,0,0,1,.324-.054Zm-.436,2.331v-1.221H86.494V144.6Z" transform="translate(-54.573 -91.02)" fill="#fff" fill-rule="evenodd"/>
      <path id="Path_110" data-name="Path 110" d="M102.226,142.365a.094.094,0,0,1,.029.079v3.962a1.441,1.441,0,0,1-.054.324,2.225,2.225,0,0,1-.162.27.54.54,0,0,1-.27.162.7.7,0,0,1-.328.054H99.33a1.3,1.3,0,0,1-.328-.054,2.549,2.549,0,0,1-.27-.162.58.58,0,0,1-.162-.27.685.685,0,0,1-.054-.324v-1.491a.13.13,0,0,1,.137-.137h.973a.13.13,0,0,1,.137.137v1a.1.1,0,0,0,.108.108h1c.029,0,.083,0,.083-.025a.108.108,0,0,0,.025-.083v-3.44c0-.029,0-.083.029-.083a.1.1,0,0,1,.083-.025h.973C102.147,142.311,102.2,142.336,102.226,142.365Z" transform="translate(-62.989 -91.064)" fill="#fff" fill-rule="evenodd"/>
      <path id="Path_111" data-name="Path 111" d="M115.258,142.266a1.272,1.272,0,0,1,.324.054,2.227,2.227,0,0,1,.27.162.54.54,0,0,1,.162.27,1.272,1.272,0,0,1,.054.324v3.242a1.272,1.272,0,0,1-.054.324,2.626,2.626,0,0,1-.162.274.58.58,0,0,1-.27.162.684.684,0,0,1-.324.054H112.79a1.441,1.441,0,0,1-.324-.054,2.223,2.223,0,0,1-.27-.162.587.587,0,0,1-.166-.274.684.684,0,0,1-.054-.324v-3.242a1.441,1.441,0,0,1,.054-.324.972.972,0,0,1,.166-.27.526.526,0,0,1,.27-.162.684.684,0,0,1,.324-.054Zm-.436,1.192h-1.653v2.521h1.653Z" transform="translate(-71.601 -91.02)" fill="#fff" fill-rule="evenodd"/>
      <path id="Path_112" data-name="Path 112" d="M130.652,147.063a.054.054,0,0,1,0,.083c-.029.025-.029.025-.083.025h-1.109a.166.166,0,0,1-.108-.025l-.083-.083-.72-1.326c0-.029-.029-.029-.054-.029h-.839c-.029,0-.029,0-.029.029v1.3a.126.126,0,0,1-.133.133h-.976a.126.126,0,0,1-.137-.133V142.4a.126.126,0,0,1,.137-.133h3.17a1.272,1.272,0,0,1,.324.054,2.224,2.224,0,0,1,.27.162.54.54,0,0,1,.162.27.648.648,0,0,1,.058.324v1.844a.81.81,0,0,1-.166.486.868.868,0,0,1-.4.3H129.9c-.029,0-.029.029-.029.054v.029Zm-1.383-3.656H127.59V144.6h1.679Z" transform="translate(-80.817 -91.023)" fill="#fff" fill-rule="evenodd"/>
      <path id="Path_113" data-name="Path 113" d="M150.934,145.883a.1.1,0,0,1,.108.108v.922c0,.029,0,.083-.029.083a.1.1,0,0,1-.079.025h-3.008a.126.126,0,0,1-.137-.133v-4.636a.126.126,0,0,1,.137-.133h.973a.126.126,0,0,1,.137.133V145.7a.1.1,0,0,0,.108.108h1.8Z" transform="translate(-94.515 -90.927)" fill="#fff" fill-rule="evenodd"/>
      <path id="Path_114" data-name="Path 114" d="M162.566,142.131a.1.1,0,0,1,.025.079v.9a.1.1,0,0,1-.025.079.1.1,0,0,1-.083.029h-2.331c-.025,0-.025,0-.025.025V144c0,.025,0,.025.025.025h2.024a.1.1,0,0,1,.108.108v.72c0,.029,0,.083-.029.083a.1.1,0,0,1-.079.025h-2.006c-.025,0-.025,0-.025.029v.756c0,.029,0,.029.025.029H162.5c.029,0,.083,0,.083.025a.108.108,0,0,1,.025.083v.868c0,.025,0,.079-.025.079a.1.1,0,0,1-.083.029h-3.469a.126.126,0,0,1-.133-.137v-4.647c0-.029,0-.083.025-.083a.108.108,0,0,1,.083-.025h3.469A.5.5,0,0,0,162.566,142.131Z" transform="translate(-101.623 -90.83)" fill="#fff" fill-rule="evenodd"/>
      <path id="Path_115" data-name="Path 115" d="M175.587,142.266a1.3,1.3,0,0,1,.328.054,2.544,2.544,0,0,1,.27.162.6.6,0,0,1,.162.27,1.44,1.44,0,0,1,.054.324v3.962c0,.025,0,.079-.029.079a.094.094,0,0,1-.079.029h-1c-.029,0-.083,0-.083-.029a.1.1,0,0,1-.025-.079v-1.246c0-.029,0-.083-.029-.083a.108.108,0,0,0-.083-.025h-1.408c-.025,0-.079,0-.079.025a.1.1,0,0,0-.029.083v1.246a.126.126,0,0,1-.133.133h-.976a.126.126,0,0,1-.137-.133v-3.962a1.44,1.44,0,0,1,.054-.324,2.548,2.548,0,0,1,.162-.27.537.537,0,0,1,.274-.162.684.684,0,0,1,.324-.054Zm-.432,2.331v-1.221H173.5V144.6Z" transform="translate(-110.203 -91.02)" fill="#fff" fill-rule="evenodd"/>
      <path id="Path_116" data-name="Path 116" d="M190.792,144.607a.1.1,0,0,1,.025.079v1.736a1.271,1.271,0,0,1-.054.324,2.225,2.225,0,0,1-.162.27.54.54,0,0,1-.27.162.684.684,0,0,1-.324.054H187.55a1.271,1.271,0,0,1-.324-.054,2.228,2.228,0,0,1-.27-.162.558.558,0,0,1-.166-.27.684.684,0,0,1-.054-.324V143.18a1.441,1.441,0,0,1,.054-.324.99.99,0,0,1,.166-.274.58.58,0,0,1,.27-.162.684.684,0,0,1,.324-.054h2.9c.029,0,.079,0,.079.029a.094.094,0,0,1,.029.079v.922c0,.029,0,.083-.029.083a.1.1,0,0,1-.079.025H188.12c-.025,0-.083,0-.083.029a.1.1,0,0,0-.025.079v2.276a.108.108,0,0,0,.025.083.112.112,0,0,0,.083.025H189.5a.1.1,0,0,0,.079-.025.1.1,0,0,0,.029-.083v-1.217c0-.029,0-.083.025-.083a.108.108,0,0,1,.083-.025h.976a.205.205,0,0,1,.1.043Z" transform="translate(-119.432 -91.084)" fill="#fff" fill-rule="evenodd"/>
      <path id="Path_117" data-name="Path 117" d="M205.109,142.323a.1.1,0,0,1,.025.079v3.962a1.272,1.272,0,0,1-.054.324,2.228,2.228,0,0,1-.162.27.526.526,0,0,1-.27.162.684.684,0,0,1-.324.054h-2.467a1.272,1.272,0,0,1-.324-.054,2.224,2.224,0,0,1-.27-.162.526.526,0,0,1-.162-.27.684.684,0,0,1-.054-.324V142.4a.126.126,0,0,1,.133-.133h.976a.126.126,0,0,1,.137.133v3.444a.1.1,0,0,0,.025.079.1.1,0,0,0,.083.029h1.38a.1.1,0,0,0,.083-.029.1.1,0,0,0,.025-.079V142.4c0-.025,0-.079.029-.079a.1.1,0,0,1,.083-.029h.991A.092.092,0,0,1,205.109,142.323Z" transform="translate(-128.588 -91.023)" fill="#fff" fill-rule="evenodd"/>
      <path id="Path_118" data-name="Path 118" d="M219.245,142.131a.094.094,0,0,1,.029.079v.9a.1.1,0,0,1-.108.108h-2.331c-.029,0-.029,0-.029.025V144c0,.025,0,.025.029.025h2.006a.1.1,0,0,1,.108.108v.72c0,.029,0,.083-.029.083a.1.1,0,0,1-.079.025h-2.006c-.029,0-.029,0-.029.029v.756c0,.029,0,.029.029.029h2.331c.025,0,.079,0,.079.025a.1.1,0,0,1,.029.083v.868c0,.025,0,.079-.029.079a.094.094,0,0,1-.079.029H215.7a.13.13,0,0,1-.137-.137v-4.647c0-.029,0-.083.029-.083a.1.1,0,0,1,.079-.025h3.469A.577.577,0,0,0,219.245,142.131Z" transform="translate(-137.874 -90.83)" fill="#fff" fill-rule="evenodd"/>
      <path id="Path_119" data-name="Path 119" d="M239.649,142.218c.029,0,.083,0,.083.025a.108.108,0,0,1,.025.083v4.632c0,.029,0,.083-.025.083a.108.108,0,0,1-.083.025h-.976c-.025,0-.079,0-.079-.025a.1.1,0,0,1-.029-.083v-1.625a.094.094,0,0,0-.108-.108h-1.383c-.025,0-.079,0-.079.025a.1.1,0,0,0-.029.083v1.625a.126.126,0,0,1-.133.137h-.976a.13.13,0,0,1-.137-.137v-4.632a.13.13,0,0,1,.137-.137h.976a.126.126,0,0,1,.133.137v1.57a.13.13,0,0,0,.137.137h1.383a.1.1,0,0,0,.108-.108v-1.574c0-.025,0-.079.025-.079a.1.1,0,0,1,.083-.029h.947Z" transform="translate(-150.772 -90.972)" fill="#fff" fill-rule="evenodd"/>
      <path id="Path_120" data-name="Path 120" d="M253.463,142.266a1.325,1.325,0,0,1,.328.054,2.551,2.551,0,0,1,.27.162.6.6,0,0,1,.162.27,1.441,1.441,0,0,1,.054.324v3.962c0,.025,0,.079-.029.079a.094.094,0,0,1-.079.029h-.976c-.025,0-.083,0-.083-.029a.1.1,0,0,1-.025-.079v-1.246c0-.029,0-.083-.029-.083a.1.1,0,0,0-.079-.025h-1.383c-.025,0-.079,0-.079.025a.1.1,0,0,0-.029.083v1.246a.126.126,0,0,1-.133.133h-.976a.126.126,0,0,1-.137-.133v-3.962a1.44,1.44,0,0,1,.054-.324,2.544,2.544,0,0,1,.162-.27.537.537,0,0,1,.274-.162.684.684,0,0,1,.324-.054Zm-.407,2.331v-1.221h-1.65V144.6Z" transform="translate(-160.062 -91.02)" fill="#fff" fill-rule="evenodd"/>
      <path id="Path_121" data-name="Path 121" d="M265.738,143.337a.108.108,0,0,0-.025.083V145.7a.1.1,0,0,0,.025.079.1.1,0,0,0,.083.029h2.248c.029,0,.083,0,.083.025a.108.108,0,0,1,.025.083v.922c0,.025,0,.079-.025.079a.1.1,0,0,1-.083.029h-2.792a1.441,1.441,0,0,1-.324-.054,2.551,2.551,0,0,1-.27-.162.551.551,0,0,1-.162-.274.684.684,0,0,1-.054-.324V142.85a1.268,1.268,0,0,1,.054-.324,2.619,2.619,0,0,1,.162-.274.6.6,0,0,1,.27-.162.684.684,0,0,1,.324-.054h2.792c.029,0,.083,0,.083.029a.1.1,0,0,1,.025.079v.922c0,.029,0,.083-.025.083a.108.108,0,0,1-.083.025h-2.248C265.788,143.312,265.763,143.337,265.738,143.337Z" transform="translate(-169.163 -90.873)" fill="#fff" fill-rule="evenodd"/>
      <path id="Path_122" data-name="Path 122" d="M280.762,144.378c-.025.029-.025.029,0,.054l1.625,2.684a.05.05,0,0,1,0,.083c-.025.025-.025.025-.079.025H281.14a.176.176,0,0,1-.108-.025l-.079-.083-1.059-1.895c-.025-.029-.025-.029-.025,0l-.569.623a.133.133,0,0,0-.054.108.223.223,0,0,0-.029.133v1.03a.126.126,0,0,1-.133.137h-.951a.126.126,0,0,1-.133-.137v-4.639a.126.126,0,0,1,.133-.137h.976a.13.13,0,0,1,.137.137v2.086l1.8-2.114a.36.36,0,0,1,.108-.079.191.191,0,0,1,.108-.029h1.163c.029,0,.054,0,.054.029a.1.1,0,0,1-.025.079Z" transform="translate(-177.823 -91.068)" fill="#fff" fill-rule="evenodd"/>
      <rect id="Rectangle_63" data-name="Rectangle 63" width="1.246" height="4.906" rx="0.38" transform="translate(105.461 51.246)" fill="#fff"/>
      <path id="Path_123" data-name="Path 123" d="M302.908,142.382a2.3,2.3,0,0,1,.274.162.609.609,0,0,1,.162.274.683.683,0,0,1,.054.324V147.1c0,.029,0,.083-.029.083a.1.1,0,0,1-.079.025h-.976a.094.094,0,0,1-.108-.108v-3.458a.1.1,0,0,0-.029-.083.1.1,0,0,0-.079-.025h-1.383c-.025,0-.079,0-.079.025s-.029.054-.029.083v3.44a.13.13,0,0,1-.137.137H299.5a.13.13,0,0,1-.137-.137v-4.621a.13.13,0,0,1,.137-.137h3.17A.292.292,0,0,1,302.908,142.382Z" transform="translate(-191.489 -91.056)" fill="#fff" fill-rule="evenodd"/>
      <path id="Path_124" data-name="Path 124" d="M317.713,144.607a.1.1,0,0,1,.025.079v1.736a1.271,1.271,0,0,1-.054.324,2.234,2.234,0,0,1-.162.27.54.54,0,0,1-.27.162.691.691,0,0,1-.328.054H314.46a1.271,1.271,0,0,1-.324-.054,2.623,2.623,0,0,1-.274-.162.58.58,0,0,1-.162-.27.685.685,0,0,1-.054-.324V143.18a1.441,1.441,0,0,1,.054-.324.983.983,0,0,1,.162-.274.608.608,0,0,1,.274-.162.684.684,0,0,1,.324-.054h2.882c.025,0,.079,0,.079.029a.094.094,0,0,1,.029.079v.922c0,.029,0,.083-.029.083a.1.1,0,0,1-.079.025h-2.331c-.029,0-.083,0-.083.029a.1.1,0,0,0-.025.079v2.276a.094.094,0,0,0,.108.108h1.383a.1.1,0,0,0,.079-.025.1.1,0,0,0,.029-.083v-1.217c0-.029,0-.083.025-.083a.108.108,0,0,1,.083-.025h.976A.137.137,0,0,1,317.713,144.607Z" transform="translate(-200.628 -91.084)" fill="#fff" fill-rule="evenodd"/>
      <path id="Path_125" data-name="Path 125" d="M99.936,50.65a5.764,5.764,0,0,0-1.113-1.625A5.234,5.234,0,0,0,97.2,47.913a5.644,5.644,0,0,0-2.006-.432H68.537a.782.782,0,0,0-.868.868V78.343a.72.72,0,0,0,.832.839h6.1a.72.72,0,0,0,.843-.839V54.987h4.946V78.343a.836.836,0,0,0,.839.839H86.81a.742.742,0,0,0,.569-.245.886.886,0,0,0,.216-.594V54.987h4.96V78.343a.886.886,0,0,0,.216.594.72.72,0,0,0,.569.245H99.49a.836.836,0,0,0,.843-.839V52.657A5.021,5.021,0,0,0,99.936,50.65Z" transform="translate(-43.247 -30.374)" fill="#fff" fill-rule="evenodd"/>
      <path id="Path_126" data-name="Path 126" d="M194.391,71.787a.749.749,0,0,0-.594-.245v.029H180.981a.839.839,0,0,1-.623-.216.72.72,0,0,1-.27-.6V48.442a.782.782,0,0,0-.893-.868h-6.451a.782.782,0,0,0-.893.868V78.411a.782.782,0,0,0,.893.864H193.8a.789.789,0,0,0,.594-.241.9.9,0,0,0,.245-.623v-6A.85.85,0,0,0,194.391,71.787Z" transform="translate(-109.905 -30.432)" fill="#fff" fill-rule="evenodd"/>
      <path id="Path_127" data-name="Path 127" d="M275.81,47.8a.857.857,0,0,0-.623-.245h-6.556a.857.857,0,0,0-.623.245.818.818,0,0,0-.27.623V58.589a.839.839,0,0,1-.868.868h-9.189a.764.764,0,0,1-.868-.688V48.438a.782.782,0,0,0-.893-.868H249.4a.782.782,0,0,0-.9.868V78.487a.782.782,0,0,0,.9.857h6.53a.782.782,0,0,0,.893-.868V67.8a.908.908,0,0,1,.245-.4.958.958,0,0,1,.616-.227h9.185a.8.8,0,0,1,.868.814V78.469a.879.879,0,0,0,.27.623.857.857,0,0,0,.623.245h6.556a.857.857,0,0,0,.623-.245.818.818,0,0,0,.274-.623V48.438a.868.868,0,0,0-.27-.634Z" transform="translate(-158.945 -30.428)" fill="#fff" fill-rule="evenodd"/>
      <path id="Path_128" data-name="Path 128" d="M91.024,188.952a.854.854,0,0,1-.335.72,1.441,1.441,0,0,1-.9.256,2.251,2.251,0,0,1-.955-.158v-.389a2.854,2.854,0,0,0,.468.14,2.392,2.392,0,0,0,.5.054.991.991,0,0,0,.609-.155.5.5,0,0,0,.205-.429.562.562,0,0,0-.072-.3.72.72,0,0,0-.241-.213,3.6,3.6,0,0,0-.519-.223,1.639,1.639,0,0,1-.7-.411.9.9,0,0,1-.195-.627.774.774,0,0,1,.288-.648,1.257,1.257,0,0,1,.8-.238,2.367,2.367,0,0,1,.955.191l-.126.36a2.161,2.161,0,0,0-.836-.18.825.825,0,0,0-.5.137.454.454,0,0,0-.18.385.6.6,0,0,0,.065.3.652.652,0,0,0,.227.213,2.852,2.852,0,0,0,.483.213,1.927,1.927,0,0,1,.756.418A.836.836,0,0,1,91.024,188.952Z" transform="translate(-56.793 -119.217)" fill="#fff"/>
      <path id="Path_129" data-name="Path 129" d="M97.931,191.512a1.081,1.081,0,0,1-.465-.094.854.854,0,0,1-.36-.288h-.029a3.675,3.675,0,0,1,.029.432v1.081h-.4v-3.782h.321l.058.36h0a.955.955,0,0,1,.36-.31,1.128,1.128,0,0,1,.465-.094.962.962,0,0,1,.8.36,1.9,1.9,0,0,1,0,1.992.973.973,0,0,1-.785.342Zm-.054-2.37a.7.7,0,0,0-.58.223,1.138,1.138,0,0,0-.184.7v.09a1.311,1.311,0,0,0,.184.789.72.72,0,0,0,.587.234.605.605,0,0,0,.53-.274,1.271,1.271,0,0,0,.191-.753,1.232,1.232,0,0,0-.191-.749.62.62,0,0,0-.519-.263Z" transform="translate(-61.835 -120.804)" fill="#fff"/>
      <path id="Path_130" data-name="Path 130" d="M107.024,190.138a1.441,1.441,0,0,1-.324,1,1.127,1.127,0,0,1-.886.36,1.192,1.192,0,0,1-.623-.162,1.081,1.081,0,0,1-.418-.472,1.621,1.621,0,0,1-.148-.72,1.441,1.441,0,0,1,.317-.994,1.127,1.127,0,0,1,.886-.36,1.109,1.109,0,0,1,.872.36A1.441,1.441,0,0,1,107.024,190.138Zm-1.988,0a1.246,1.246,0,0,0,.2.764.7.7,0,0,0,.587.259.72.72,0,0,0,.591-.259,1.239,1.239,0,0,0,.2-.764,1.221,1.221,0,0,0-.2-.756.807.807,0,0,0-1.181,0,1.236,1.236,0,0,0-.195.756Z" transform="translate(-66.897 -120.784)" fill="#fff"/>
      <path id="Path_131" data-name="Path 131" d="M115,191.429V189.74a.677.677,0,0,0-.144-.475.594.594,0,0,0-.454-.158.753.753,0,0,0-.6.223,1.12,1.12,0,0,0-.191.72v1.369h-.4v-2.611h.321l.065.36h.022a.832.832,0,0,1,.339-.3,1.149,1.149,0,0,1,.49-.1.994.994,0,0,1,.72.227.973.973,0,0,1,.238.72v1.7Z" transform="translate(-72.392 -120.768)" fill="#fff"/>
      <path id="Path_132" data-name="Path 132" d="M122.91,190.744a.648.648,0,0,1-.27.562,1.275,1.275,0,0,1-.764.2,1.682,1.682,0,0,1-.81-.162v-.36a2.064,2.064,0,0,0,.4.148,1.572,1.572,0,0,0,.418.058.914.914,0,0,0,.475-.1.321.321,0,0,0,.166-.3.328.328,0,0,0-.13-.263,2.118,2.118,0,0,0-.519-.256,2.65,2.65,0,0,1-.515-.238.67.67,0,0,1-.231-.231.63.63,0,0,1,.184-.81,1.214,1.214,0,0,1,.72-.184,2.078,2.078,0,0,1,.825.173l-.14.321a1.9,1.9,0,0,0-.72-.162.843.843,0,0,0-.425.086.277.277,0,0,0-.14.245.285.285,0,0,0,.054.176.472.472,0,0,0,.173.141,3.177,3.177,0,0,0,.457.195,1.664,1.664,0,0,1,.627.342A.594.594,0,0,1,122.91,190.744Z" transform="translate(-77.413 -120.796)" fill="#fff"/>
      <path id="Path_133" data-name="Path 133" d="M129.975,190.138a1.441,1.441,0,0,1-.321,1,1.142,1.142,0,0,1-.89.36,1.185,1.185,0,0,1-.62-.162,1.081,1.081,0,0,1-.421-.472,1.671,1.671,0,0,1-.148-.72,1.441,1.441,0,0,1,.321-.994,1.252,1.252,0,0,1,1.758,0A1.441,1.441,0,0,1,129.975,190.138Zm-1.988,0a1.246,1.246,0,0,0,.2.764.7.7,0,0,0,.587.259.721.721,0,0,0,.591-.259,1.24,1.24,0,0,0,.2-.764,1.221,1.221,0,0,0-.2-.756.806.806,0,0,0-1.181,0A1.214,1.214,0,0,0,127.986,190.138Z" transform="translate(-81.581 -120.784)" fill="#fff"/>
      <path id="Path_134" data-name="Path 134" d="M137.359,188.79a1.6,1.6,0,0,1,.313.029l-.054.36a1.283,1.283,0,0,0-.288-.036.72.72,0,0,0-.54.256.936.936,0,0,0-.227.641v1.4h-.393V188.83h.324l.047.483h.018a1.2,1.2,0,0,1,.36-.393A.807.807,0,0,1,137.359,188.79Z" transform="translate(-87.081 -120.787)" fill="#fff"/>
      <path id="Path_135" data-name="Path 135" d="M142.536,191.5a1.2,1.2,0,0,1-.915-.36,1.354,1.354,0,0,1-.335-.976,1.513,1.513,0,0,1,.313-1,1.023,1.023,0,0,1,.832-.36.987.987,0,0,1,.778.324,1.225,1.225,0,0,1,.285.85v.249h-1.8a1.041,1.041,0,0,0,.231.7.81.81,0,0,0,.623.238,2.068,2.068,0,0,0,.832-.177v.36a1.882,1.882,0,0,1-.4.13A2.03,2.03,0,0,1,142.536,191.5Zm-.108-2.374a.641.641,0,0,0-.5.205.929.929,0,0,0-.22.565h1.365a.868.868,0,0,0-.169-.573A.583.583,0,0,0,142.427,189.125Z" transform="translate(-90.353 -120.791)" fill="#fff"/>
      <path id="Path_136" data-name="Path 136" d="M150.808,189.186h-.022a.937.937,0,0,1-.821.4.969.969,0,0,1-.8-.36,1.534,1.534,0,0,1-.285-.994,1.567,1.567,0,0,1,.288-1,1.059,1.059,0,0,1,1.61.029h.029V185.8h.4v3.707h-.324Zm-.792.065a.72.72,0,0,0,.587-.22,1.1,1.1,0,0,0,.184-.72v-.083a1.315,1.315,0,0,0-.184-.792.72.72,0,0,0-.591-.238.609.609,0,0,0-.533.27,1.351,1.351,0,0,0-.184.764,1.3,1.3,0,0,0,.184.756.62.62,0,0,0,.526.263Z" transform="translate(-95.214 -118.874)" fill="#fff"/>
      <path id="Path_137" data-name="Path 137" d="M161.274,186.49h.98a1.848,1.848,0,0,1,1,.209.72.72,0,0,1,.306.656.749.749,0,0,1-.173.508.8.8,0,0,1-.5.263v.022c.526.094.792.36.792.836a.886.886,0,0,1-.317.72,1.329,1.329,0,0,1-.883.263H161.27Zm.4,1.491h.67a1.081,1.081,0,0,0,.616-.133.519.519,0,0,0,.187-.454.461.461,0,0,0-.209-.425,1.315,1.315,0,0,0-.666-.13h-.6Zm0,.36v1.3h.72a1.034,1.034,0,0,0,.634-.162.6.6,0,0,0,.213-.511.54.54,0,0,0-.216-.475,1.138,1.138,0,0,0-.663-.155Z" transform="translate(-103.14 -119.312)" fill="#fff"/>
      <path id="Path_138" data-name="Path 138" d="M168.74,188.914h.425l.569,1.491a5.32,5.32,0,0,1,.234.72h0c.022-.083.065-.22.13-.414s.285-.8.648-1.8h.425l-1.124,2.975a1.5,1.5,0,0,1-.389.623.832.832,0,0,1-.548.184,1.5,1.5,0,0,1-.36-.04v-.317a1.213,1.213,0,0,0,.292.029.6.6,0,0,0,.584-.457l.144-.36Z" transform="translate(-107.919 -120.864)" fill="#fff"/>
      <path id="Path_139" data-name="Path 139" d="M283.5,185.307v-.67h-.836V183.6h-.025l-.782.238h0v.789h-1.232v-.439a.692.692,0,0,1,.137-.468.468.468,0,0,1,.378-.155.886.886,0,0,1,.36.083l.032.018v-.72h0a1.441,1.441,0,0,0-.461-.061,1.344,1.344,0,0,0-.652.158,1.081,1.081,0,0,0-.45.443,1.293,1.293,0,0,0-.162.648v.483h-.58v.67h.58v2.82h.832v-2.82h1.232v1.8c0,.72.36,1.113,1.034,1.113a1.547,1.547,0,0,0,.36-.04.98.98,0,0,0,.256-.079h0V187.4l-.032.025a.789.789,0,0,1-.166.072.7.7,0,0,1-.166.029.454.454,0,0,1-.36-.13.692.692,0,0,1-.115-.45V185.3h.836Z" transform="translate(-178.61 -117.005)" fill="#fff"/>
      <path id="Path_140" data-name="Path 140" d="M272.085,188a1.7,1.7,0,0,0-1.279-.479,1.823,1.823,0,0,0-1.362.5,1.87,1.87,0,0,0-.49,1.369,1.758,1.758,0,0,0,.479,1.3,1.733,1.733,0,0,0,1.286.483,1.772,1.772,0,0,0,1.333-.508,1.887,1.887,0,0,0,.49-1.354A1.8,1.8,0,0,0,272.085,188Zm-.627,2.212a.828.828,0,0,1-.688.292.886.886,0,0,1-.72-.3,1.261,1.261,0,0,1-.252-.839,1.333,1.333,0,0,1,.252-.861.955.955,0,0,1,1.38,0,1.269,1.269,0,0,1,.252.857,1.373,1.373,0,0,1-.223.85Z" transform="translate(-172.034 -119.976)" fill="#fff"/>
      <path id="Path_141" data-name="Path 141" d="M262.886,187.528a1.5,1.5,0,0,0-.962.3.936.936,0,0,0-.36.771,1.08,1.08,0,0,0,.079.436.861.861,0,0,0,.249.324,2.107,2.107,0,0,0,.508.281,3.686,3.686,0,0,1,.418.2.587.587,0,0,1,.184.151.36.36,0,0,1,.05.2c0,.238-.173.36-.537.36a1.441,1.441,0,0,1-.457-.083,1.736,1.736,0,0,1-.461-.234l-.036-.025v.8h0a2.116,2.116,0,0,0,.439.137,2.4,2.4,0,0,0,.472.054,1.574,1.574,0,0,0,1.016-.3.958.958,0,0,0,.378-.792.926.926,0,0,0-.2-.6,1.722,1.722,0,0,0-.692-.439,1.885,1.885,0,0,1-.5-.256.36.36,0,0,1-.1-.27.31.31,0,0,1,.126-.249.58.58,0,0,1,.36-.1,1.44,1.44,0,0,1,.421.065,1.466,1.466,0,0,1,.36.169l.032.025V187.7h0a1.765,1.765,0,0,0-.36-.1,2.21,2.21,0,0,0-.407-.043" transform="translate(-167.305 -119.978)" fill="#fff"/>
      <path id="Path_142" data-name="Path 142" d="M253.6,188a1.7,1.7,0,0,0-1.279-.479,1.8,1.8,0,0,0-1.358.5,1.869,1.869,0,0,0-.493,1.369,1.776,1.776,0,0,0,.479,1.3,1.743,1.743,0,0,0,1.286.483,1.772,1.772,0,0,0,1.333-.508,1.887,1.887,0,0,0,.49-1.354A1.8,1.8,0,0,0,253.6,188Zm-.623,2.212a.836.836,0,0,1-.692.292.882.882,0,0,1-.72-.3,1.257,1.257,0,0,1-.256-.839,1.311,1.311,0,0,1,.256-.861.854.854,0,0,1,.7-.3.868.868,0,0,1,.681.288,1.29,1.29,0,0,1,.249.857A1.376,1.376,0,0,1,252.972,190.215Z" transform="translate(-160.205 -119.975)" fill="#fff"/>
      <path id="Path_143" data-name="Path 143" d="M245.541,188.242v-.605h-.821v3.49h.821v-1.8a1.228,1.228,0,0,1,.205-.738.627.627,0,0,1,.533-.281.919.919,0,0,1,.249.036.588.588,0,0,1,.187.079l.036.022v-.828h0a.949.949,0,0,0-.872.148,1.113,1.113,0,0,0-.317.468Z" transform="translate(-156.531 -120.005)" fill="#fff"/>
      <path id="Path_144" data-name="Path 144" d="M237.263,187.517a1.988,1.988,0,0,0-1,.241,1.592,1.592,0,0,0-.659.677,2.2,2.2,0,0,0-.227,1,1.859,1.859,0,0,0,.22.9,1.6,1.6,0,0,0,.616.623,1.84,1.84,0,0,0,.9.216,2,2,0,0,0,.991-.23h0v-.753l-.036.025a1.614,1.614,0,0,1-.4.205,1.244,1.244,0,0,1-.393.079,1,1,0,0,1-.767-.3,1.167,1.167,0,0,1-.285-.828,1.192,1.192,0,0,1,.3-.85,1,1,0,0,1,.771-.321,1.322,1.322,0,0,1,.782.274l.036.022v-.81h0a1.268,1.268,0,0,0-.382-.13,2.36,2.36,0,0,0-.465-.047" transform="translate(-150.555 -119.968)" fill="#fff"/>
      <rect id="Rectangle_64" data-name="Rectangle 64" width="0.821" height="3.49" transform="translate(83.438 67.632)" fill="#fff"/>
      <path id="Path_145" data-name="Path 145" d="M231.786,183.63a.5.5,0,0,0-.36.137.443.443,0,0,0-.148.36.421.421,0,0,0,.148.335.49.49,0,0,0,.36.137.5.5,0,0,0,.36-.137.422.422,0,0,0,.148-.335.454.454,0,0,0-.144-.339.479.479,0,0,0-.36-.14" transform="translate(-147.93 -117.485)" fill="#fff"/>
      <path id="Path_146" data-name="Path 146" d="M219.128,185.054v3.75h.836V183.93h-1.156l-1.477,3.616-1.43-3.616h-1.21V188.8h.789V185.05h.029l1.509,3.753h.594l1.488-3.75Z" transform="translate(-137.318 -117.677)" fill="#fff"/>
      <rect id="Rectangle_65" data-name="Rectangle 65" width="3.861" height="3.861" transform="translate(66.807 64.624)" fill="#fff"/>
      <rect id="Rectangle_66" data-name="Rectangle 66" width="3.861" height="3.861" transform="translate(71.076 64.624)" fill="#fff"/>
      <rect id="Rectangle_67" data-name="Rectangle 67" width="3.861" height="3.865" transform="translate(66.807 68.893)" fill="#fff"/>
      <rect id="Rectangle_68" data-name="Rectangle 68" width="3.861" height="3.865" transform="translate(71.076 68.893)" fill="#fff"/>
    </g>
  </g>
</svg>
